<?xml version="1.0" encoding="utf-8"?>
<!-- Generator: Adobe Illustrator 22.0.0, SVG Export Plug-In . SVG Version: 6.00 Build 0)  -->
<svg version="1.1" id="图层_1" xmlns="http://www.w3.org/2000/svg" xmlns:xlink="http://www.w3.org/1999/xlink" x="0px" y="0px"
	 viewBox="0 0 1366 768" style="enable-background:new 0 0 1366 768;" xml:space="preserve">
<style type="text/css">
	.st0{fill:none;}
</style>
<g>
	<g>
		<path d="M987.2,531.1c-2.3,1-5.1,2.3-9.3,3.7c-10.7,3.8-16,5.7-20.3,3.7c-3.3-1.5-4.6-4.2-6-6.9c-1.4-2.8-2.7-5.4-6.1-6.6
			c-3.3-1.2-8.1-0.9-10.1,1.7c-1.2,1.6-0.7,3.7-0.1,6.2c0.7,2.9,1.5,6.1-0.1,9.6c-1.1,2.3-2.5,3.3-3.9,4.2c-1.4,0.9-2.7,1.7-3.8,4
			c-1.4,2.8-0.9,4.7-0.4,7c0.5,2.2,1,4.6-0.1,8.1c-1,3.3-2.7,5-4.3,6.7c-1.8,1.8-3.5,3.6-4,7.2c-0.2,1.2-0.3,2.1-0.3,3
			c-0.1,1.6-0.2,2.9-1.1,4.5c-1.1,2.2-3.8,3.8-6.8,4.8c1.2,1.5,2.4,3.1,3.6,4.6c0.6,0.7,2.4,0.5,3.7,0.7c4.1,0.7,7.5,1.7,9.6,6.4
			c1.2,2.6,5.3,4.5,8.4,5.6c2.4,0.8,5.9,3.1,8.1-1.3c0.2-0.4,5,0.4,5.6,1.6c1.7,3.7,2.3,7.9,3.5,12.4c5,0.9,7.2,4,7.7,10.5
			c0.2,2.8,2.1,5.6,3.5,8.3c1.1,2.1,2.4,4.1,3.2,5.4c2.5,1.3,4.6,2.4,6.6,3.4c-0.9,1.7-1.5,3.7-2.8,5.1c-1.3,1.3-3.4,2-5.1,3
			c-1.6,0.9-3.2,1.9-4.2,2.6c1.6,3.6,2.9,6.6,4.4,10.2c6.2-2.4,9.2,2.7,12.6,7.1c0.3,0,0.7,0,1,0c2.4-2.3,4.7-4.8,7.3-6.9
			c2.6-2,5.5-3.7,8.3-5.5c0.4,0.3,0.8,0.6,1.1,0.9c0-1.8,0.4-3.7-0.1-5.3c-2.6-8-1.8-10.5,5.2-15.5c1.2-0.9,2.5-2.2,3-3.5
			c2.3-6.2,2.2-6.3,7.4-8.7c-4.2-4.3-2.2-8.5,0.2-12.7c-0.5,0-1,0-1.4,0c-0.1-3.4-0.8-6.9-0.2-10.1c0.3-1.6,2.9-3.3,4.8-4
			c4.1-1.5,7.2-3.6,6.5-8.4c-1-6.9-1.5-13.4,1.6-20.2c2.1-4.6-1.6-8.4-4.5-12c-2.5-3.1-5-6.6-6.2-10.3c-1.7-5.7-7.3-5.6-10.8-8.5
			c-0.6-0.5-1.7-0.2-2.3-0.7c-2.3-1.8-3.4-11.2-2.6-16.9c-0.5-0.1-1-0.2-1.4-0.2C992.9,528.7,991,529.5,987.2,531.1z"/>
	</g>
</g>
<g>
	<g>
		<path d="M1035.9,400.4c-2-0.7-3.9-0.3-5.8,0.2c-2.4,0.6-4.9,1.2-7.9-0.3c-2.1-1.1-3.3-2.7-4.3-4.1c-1.2-1.6-2.2-2.9-4.2-3.2
			c-1.1-0.2-1.9,0.1-2.7,0.4c-0.9,0.4-2,0.8-3.8,0.6c-2.1-0.2-3.2-1.1-4.3-1.9c-0.9-0.7-1.7-1.3-3.1-1.4c-2.6-0.1-4.1,1-5.9,2.3
			c-1.5,1.1-3.1,2.2-5.5,2.7c-4.1,0.8-7.1-1.1-9.7-2.8c-2.4-1.6-4.6-3-7.3-2.2c-2.7,0.7-4,3-5.4,5.5c-1.5,2.7-3.2,5.8-7.1,7.4
			c-3.6,1.5-7,0.7-13.6-1c-6.3-1.6-10.8-3.7-14.1-5.3c-3.9-1.8-6.2-3-8.3-1.8c-1.3,0.8-1.6,2-1.9,3.7c-0.4,1.9-0.9,4.3-2.9,7.1
			c-2.7,3.8-5.9,5.2-8.3,6.3c-2,0.9-3.4,1.5-3.6,3c-0.5,2.7,3.1,5.4,6.8,8.3c4.7,3.7,10.1,7.8,9.8,13.4c0,0.6-0.2,1.3-0.3,1.8
			c-0.3,1.4-0.5,2.8,0.1,4.6c0.6,1.9,1.6,2.8,2.8,3.9c0.8,0.8,1.7,1.6,2.5,2.8c1.9,2.9,1.6,5.3,1.3,7.6c-0.2,1.8-0.4,3.5,0.4,5.3
			c1.5,3.4,5.1,4.1,9.3,5c4.4,0.9,9.3,1.9,12.8,6.4c3.6,4.6,4.7,11.7,2.6,17.3c-1.7,4.6-5.3,7.4-7,8.7c-2.8,2.2-5.3,3.1-7.1,3.7
			c-1.7,0.6-2.8,1-3.5,2.2c-2.5,4.6-1.1,11.8,4.6,16.7c1.6,0,3.2,0.2,4.5,0.7c3.8,1.3,5.3,4.3,6.7,7.1c1.3,2.6,2.5,5.1,5.5,6.4
			c3.9,1.8,9.1-0.1,19.5-3.8c4.1-1.5,6.9-2.7,9.2-3.7c3.8-1.7,5.9-2.6,9.1-2.2c0.5,0.1,1,0.1,1.5,0.2c0.3-1.6,0.8-2.8,1.6-3.3
			c1.9-1.2,4.8-1,7.2-0.9c2.8,0.1,5.1,0.4,7-2.8c1.1-2,4.4-3.1,6.9-3.8c6.5-1.7,10.1-6.1,12.7-11.8c1.2-2.6,2.5-4.2,5.3-6
			c2.9-1.8,4.5-8.2,3.9-12.2c-0.7-4.8-2.1-8.7,2.1-12.4c0.9-0.8,1.5-2.3,1.5-3.5c0-3.3,0.2-6.7-0.7-9.8c-0.9-2.9-3.1-5.4-4.8-8.1
			c-2.2-3.6-2-11,0.8-14.1c1.1-1.3,3.6-1.4,4.6-2.7c2.4-3.2,0.5-10.1-3.1-12.3c-3.3-2-3-4.9-2.4-7.9c0.5-2.5,2.1-2.6,3.8-2.4
			C1042.3,406.4,1039.6,401.6,1035.9,400.4z"/>
	</g>
</g>
<g>
	<path d="M909.1,441.6c-5,1.2-8,2-11.6,0.9c-3.4-1-5.3-3-7-4.8c-1.7-1.8-3.2-3.3-5.7-3.4c-2-0.1-3.1,0.7-4.4,1.6
		c-1,0.7-2,1.3-3.4,1.6c-6.1,1-11.3-8.2-15.5-15.7c-2.1-3.7-4.4-7.9-5.5-7.6c-0.8,0.2-0.7,3.9-0.6,7c0.2,6.9,0.6,17.4-5.6,22.4
		c-0.8,0.7-1.7,1.2-2.6,1.7c-1.7,1-3.1,1.8-3.2,3.2c-0.1,1.3,1,2.2,2.4,3.3c1.6,1.2,3.5,2.8,4.3,5.5c1.5,4.9-1.6,10.1-3,12.7
		c-1.5,2.5-2.9,3.8-4,4.9c-1.2,1.1-2,1.9-2.2,3.4c-0.4,2.8,1.6,5.2,3.1,7.1c1.3,1.6,2.4,2.9,1.8,4.1c-0.6,1.3-2.6,0.8-5.6-0.1
		c-3.9-1.1-9.2-2.6-14.8-1.4c-1.9,0.4-2.9,1.3-4.3,2.4c-1.5,1.3-3.3,2.7-6.7,3.9c-0.5,0.2-1,0.3-1.4,0.4c-1.6,0.5-3.1,0.9-3.2,1.7
		c-0.1,0.4,0.4,0.9,1.3,1.6c0.9,0.7,2,1.6,2.9,3c2.1,3.1,2.2,7,1.6,8.8c-0.2,0.7-0.6,1.1-1,1.3c-0.9,0.4-1.7-0.6-2.7-2
		c-1.4-1.8-3.3-4.3-6.6-5.2c-2.3-0.6-4.2-0.1-5.6,0.3c-4.9,1.3-8.6,5.1-11.1,8.6c0.5,0.7,1.1,1.3,1.6,1.9c3.3,3.5,3.2,7.3,3.4,11.7
		c0.3,4.4,1.7,9.3,4.3,12.7c3.2,4.3,8,7.4,12.2,11c3.9,3.3,7.9,2,12.1,0.5c6.9-2.6,10.6-2.6,11.6,7.4c1.9-6.5,4.9-4.7,8.7-2.9
		c3,1.4,6.7,1.6,10,2.2c2.4,0.4,4.9,0.7,7.3,1.1c3.1,0.6,2.8,3.3,3.8,5.5c1.5,3.4,4.4,6.2,6.9,9c0.7,0.7,2.4,0.8,3.6,0.7
		c4-0.3,8-1.3,11.9-1c4.8,0.4,9.6,1.3,14,3.1c1.6,0.7,1.6,4.6,3,6.7c2,2.9,4,5.8,6.2,8.6c2.9-0.9,5.5-2.5,6.5-4.4
		c0.8-1.5,0.8-2.6,1-4.2c0.1-0.9,0.1-1.8,0.3-3.1c0.6-3.9,2.5-5.9,4.3-7.8c1.6-1.6,3.2-3.3,4.1-6.3c1-3.2,0.5-5.4,0-7.6
		c-0.5-2.4-1-4.6,0.5-7.6c1.2-2.5,2.7-3.5,4.2-4.4c1.3-0.9,2.6-1.7,3.6-3.7c1.4-3.2,0.7-6.3,0-9c-0.6-2.6-1.2-5,0.3-7
		c1.2-1.5,3.1-2.3,5.3-2.6c-5.5-5.2-6.8-12.5-4.1-17.3c0.8-1.5,2.2-2,4-2.6c1.8-0.6,4.1-1.4,6.8-3.5c1.6-1.3,5-4,6.7-8.3
		c2-5.3,1-12-2.4-16.3c-3.3-4.2-8.1-5.2-12.3-6c-4.2-0.9-8.2-1.7-10-5.6c-0.9-2.1-0.7-4-0.5-5.9c0.3-2.2,0.5-4.3-1.1-6.9
		c-0.7-1.1-1.6-1.9-2.3-2.6c-1.2-1.1-2.4-2.2-3-4.3c-0.7-2.1-0.4-3.7-0.1-5.1c0.1-0.6,0.2-1.2,0.2-1.7c0-0.3,0-0.5,0-0.8
		c-3.7,2.2-7.7,3.8-11.8,4.8L909.1,441.6z"/>
</g>
<g>
	<path d="M989.2,383c-0.4-1.3-1-1.9-1.7-2.7c-0.6-0.6-1.3-1.3-1.9-2.5c-1.1-2-1-3.6-0.8-6.2c0.1-1.7,0.2-3.8,0.1-6.8l-0.1-1.8
		c-0.2-5.8-0.3-8.2-1.9-9.4c-1.2-0.9-2.7-0.7-5-0.3c-0.7,0.1-1.6,0.3-2.5,0.4c-0.2,0-0.4,0.1-0.7,0.1c-3.3,0.5-13.5,2-19.5-2.7
		c-2.6-2-3.9-4.5-5-6.7c-1.4-2.6-2.6-4.9-5.6-6c-2.4-0.9-4.4-0.5-6.3-0.1c-2.2,0.4-4.5,0.9-7.2-0.7c-1.9-1.1-2.7-2.4-3.4-3.7
		c-0.8-1.3-1.6-2.6-3.6-3.9c-3.2-2-8-2.9-9.9-1.1c-1.3,1.2-0.8,3.3-0.2,5.6c0.7,2.7,1.5,5.8-0.1,8.8c-3.6,6.5-16.4,6.3-18.9,6.1
		c-3.2-0.2-5.2-0.7-6.8-1.2c-2-0.6-3.3-1-5.7-0.3c-2.6,0.8-4.1,2.3-5.5,3.7c-1.6,1.7-3.2,3.3-6.2,3.3c-2.5,0-4.4-0.9-5.9-1.6
		c-1.6-0.7-2.7-1.3-3.8-0.7c-1.4,0.7-1.5,2.4-1.6,4.8c-0.1,2.7-0.3,6.1-2.5,9.5c-2,3.1-5.5,5.2-12.4,9.2c-1.7,1-3.2,1.8-4.4,2.4
		c-3.2,1.7-4.6,2.5-4.6,3.6c0,0.7,2.1,2.8,6.1,6.4c1.6,1.4,2.4,2.1,3.5,3c3.2,2.6,6.7,9.6,10.5,21.4c1.7-0.4,3.4,2.5,6.5,8.1
		c3.8,6.8,9.1,16.1,14.4,15.2c1.2-0.2,2-0.8,3-1.4c1.3-0.9,2.7-1.8,5-1.7c3,0.1,4.6,1.9,6.4,3.7c1.7,1.8,3.4,3.6,6.6,4.5
		c3.3,1,6.2,0.3,11.1-0.9l0.9-0.2c4.2-1,8.2-2.7,11.9-4.9c-0.9-4.1-5.3-7.5-9.2-10.6c-4.2-3.2-7.8-6-7.2-9.3c0.4-2,2.1-2.8,4.2-3.7
		c2.4-1.1,5.3-2.4,7.9-6c1.9-2.7,2.4-4.9,2.7-6.7c0.4-1.8,0.7-3.4,2.4-4.4c2.5-1.5,5.2-0.2,9.2,1.7c3.3,1.6,7.7,3.7,13.9,5.2
		c6.4,1.6,9.6,2.4,12.9,1c3.6-1.5,5.1-4.3,6.6-7c1.5-2.7,2.8-5.2,6-6c3.2-0.8,5.7,0.8,8.1,2.4c2,1.3,4.1,2.6,6.6,2.8
		c0.8-1.3,1.5-2.7,2-4.1C989.8,386.3,989.5,384.2,989.2,383z"/>
</g>
<g>
	<g>
		<path class="st0" d="M935.4,282.6c-0.8,0.4-1.7,0.9-2.6,1.3C933.8,283.8,934.7,283.5,935.4,282.6z"/>
	</g>
</g>
<g>
	<g>
		<path d="M936.5,280.6c0,0.1-0.1,0.3-0.2,0.4c0.1,0,0.2-0.1,0.3-0.1C936.6,280.8,936.5,280.7,936.5,280.6z"/>
	</g>
</g>
<g>
	<path d="M1058.9,392.5c-0.7-1.3-2-2.5-2.1-3.8c-0.2-4.6-1.9-8.1-6.2-10.3c-1.3-0.7-2.5-1.9-3.9-2.3c-5.3-1.5-6.3-5.5-5.9-10.1
		c0.4-5.2-1.9-7.6-7.1-7.4c-0.9,0-2.1-0.4-2.6-1c-2.4-3-3.9-3.8-5.5,0.9c-0.8,2.4-7.5,1.6-9-1.1c-0.7-1.3-1.6-2.8-1.5-4.2
		c0.8-9.9,1.8-19.7,2.9-29.5c0.1-1,1.6-2,2.7-2.7c6.2-4.2,10.2-10.3,13.8-16.6c1.6-2.7-1.3-7.8-4.2-8.8c-4.5-1.6-8.7-4.4-13.3-5.4
		c-8.9-2-16.7-9.9-26.9-5.4c-2.5,1.1-6,1-6.1,5c0,0.1-0.1,0.3-0.2,0.4c-2.9,3.2-8,1.4-10.9,5.7c-2.7,4-7.3,1.6-11.3,0.4
		c-5.8-1.8-11.8-2.8-17.5-4.7c-1.9-0.6-3.6-2.6-4.8-4.3c-1.1-1.6-1.6-3.4-2.4-5.5c-0.5,0.3-1,0.5-1.5,0.8c-0.7,0.9-1.7,1.2-2.6,1.3
		c-5.1,2.5-11,5.1-16.6,6.9c-4.8,1.6-8.4,2.3-10.8,2.2c-2.3-0.1-4.3-0.6-6-1c-2.1-0.5-3.8-0.9-4.4-0.2c-0.3,0.4-0.3,0.9-0.1,1.8
		c0.2,1,0.4,2.2-0.3,3.5c-0.7,1.3-1.9,1.7-3,2.1c-0.7,0.2-1.3,0.5-2,0.9c-3.6,2.3-3.7,8.4-3.8,12l0,0.2c-0.1,4-0.2,11.6,4,14
		c1.8,1,3.7,0.6,6.1,0.2c1.8-0.4,3.8-0.8,6.2-0.7c3.7,0.1,7.3,1.2,11,3.4c0.2-0.3,0.4-0.6,0.6-0.8c2.6-2.4,8.1-0.9,11.1,0.9
		c2.2,1.4,3.1,2.9,3.9,4.2c0.8,1.3,1.4,2.4,3.1,3.3c2.4,1.4,4.3,1,6.5,0.5c2.1-0.4,4.2-0.8,6.8,0.2c3.4,1.3,4.7,3.8,6.1,6.5
		c1.1,2.2,2.3,4.4,4.8,6.3c5.6,4.4,15.5,3,18.7,2.5c0.3,0,0.5-0.1,0.7-0.1c0.9-0.1,1.7-0.3,2.5-0.4c2.4-0.4,4.2-0.7,5.8,0.5
		c2,1.5,2.1,4,2.3,10.2l0.1,1.8c0.1,3.1,0,5.2-0.1,6.9c-0.2,2.6-0.3,3.9,0.7,5.6c0.6,1.1,1.2,1.7,1.7,2.3c0.8,0.8,1.5,1.5,1.9,3.1
		c0.4,1.3,0.7,3.6-1.3,8.3c-0.5,1.3-1.1,2.5-1.8,3.7c0.4,0,0.7-0.1,1.1-0.1c2.2-0.4,3.7-1.5,5.1-2.5c1.8-1.3,3.6-2.6,6.5-2.5
		c1.7,0,2.7,0.8,3.7,1.6c1,0.7,2,1.5,3.7,1.7c1.6,0.2,2.5-0.2,3.4-0.5c0.9-0.3,1.8-0.7,3.2-0.5c2.5,0.3,3.7,1.9,4.9,3.6
		c1,1.4,2.1,2.8,4,3.8c2.6,1.3,4.8,0.8,7.2,0.3c2-0.5,4.1-1,6.4-0.2c4.1,1.4,7,6.5,8.6,15.1c0.3,0,0.5,0,0.8,0
		c1.2,0,2.5-0.1,3.6-0.6c2.2-1,4.2-2.3,7.6-4.2c-0.6-4.2-2.5-10.2,2.1-15.1C1058.9,393.9,1058.9,393.2,1058.9,392.5z"/>
</g>
<g>
	<path d="M850.1,343.5c-0.3,0-0.7,0.1-1.1,0.2c-1.4,0.3-3.4,0.8-5.6-0.1c-1.5-0.6-2.2-1.5-2.8-2.1c-0.5-0.5-0.8-0.9-1.2-1
		c-1.1-0.3-2.1,1.8-3.1,4.3c-1.5,3.5-3.4,7.8-7.4,9.7c-2.9,1.4-5.3,0.8-7.6,0.2c-2.3-0.6-4.5-1.2-7.2,0.3c-2.1,1.1-2.9,2.6-4,4.5
		c-1.1,2-2.5,4.6-5.9,7.4c-2.3,1.9-3.8,2.5-4.9,3c-1.1,0.5-1.7,0.7-2.5,1.9c-2,3-1.2,6.3-0.3,9.8c0.9,3.7,1.9,7.5-0.3,11.2
		c-0.8,1.3-1.4,1.8-2.5,2.5c-1.1,0.7-2.8,1.8-5.8,4.7c-2.6,2.5-3.7,3.9-4.5,5.1c-0.8,1-1.4,1.8-2.8,3c-4.9,3.9-13.4,6.8-20.5,4.1
		c-2.1-0.8-3.7-2-5-2.9c-1.8-1.3-2.8-2-3.9-1.6c-0.5,0.2-0.6,0.6-0.8,1.5c-0.2,0.8-0.4,1.9-1.3,3.1c-1.5,2.1-3.4,2.7-5,3.2
		c-1.4,0.5-2.6,0.8-3.2,2c-1,1.9,0.3,4.5,2.5,9.3c0.8,1.7,1.5,2.9,2,3.8c0.9,1.6,1.5,2.6,1.5,4.3c0.1,3.1-1.8,5.4-3,6.9l-0.3,0.4
		c-2.3,2.9-2.8,5-4.2,10.3c-0.7,2.7-1.6,6.3-3.1,11.3c-0.6,2.2-1.3,4.4-2,6.6c0.2,0.9,0.3,1.8,0.5,2.9c0.3,2.5,0.4,5,0.6,7.7
		c0.6,0.2,1.3,0.7,1.8,0.5c9.3-2.6,16.4,5.8,25.3,5.2c5.1-0.3,6.6,2.6,5.6,7.7c8.7-2.2,10,5.8,14.3,9.5c2.6,2.2,4.4,5.2,6.5,8
		c2.6-3.6,6.4-7.4,11.5-8.8c1.4-0.4,3.6-1,6.1-0.3c3.6,0.9,5.7,3.7,7.1,5.5c0.5,0.7,1.3,1.8,1.6,1.7c0.1,0,0.3-0.2,0.4-0.7
		c0.5-1.5,0.4-5.1-1.5-7.9c-0.9-1.3-1.9-2.1-2.7-2.8c-1-0.8-1.9-1.5-1.7-2.5c0.2-1.3,1.9-1.8,3.9-2.4c0.5-0.1,0.9-0.3,1.4-0.4
		c3.2-1.1,4.9-2.5,6.3-3.7c1.3-1.1,2.6-2.2,4.7-2.7c5.8-1.3,11.5,0.3,15.3,1.4c2,0.6,4.2,1.2,4.4,0.6c0.3-0.6-0.7-1.8-1.7-3
		c-1.7-2-3.8-4.6-3.4-7.8c0.3-1.9,1.2-2.8,2.5-4c1.1-1,2.4-2.3,3.8-4.7c1.4-2.4,4.4-7.3,3-11.8c-0.7-2.4-2.5-3.8-4-5
		c-1.5-1.2-2.9-2.4-2.8-4.2c0.2-1.9,1.9-2.9,3.7-4c0.8-0.5,1.7-1,2.5-1.6c5.8-4.6,5.5-14.4,5.2-21.5c-0.1-3.6-0.2-6.3,0.6-7.5
		c-3.8-11.6-7.2-18.8-10.3-21.2c-1.1-0.9-1.9-1.6-3.5-3c-6.4-5.6-6.4-6.5-6.4-7.1c0-1.8,1.8-2.8,5.1-4.5c1.3-0.7,2.7-1.4,4.4-2.4
		c6.8-3.9,10.2-5.9,12.1-8.8c2-3.2,2.2-6.4,2.3-9c0.1-2.4,0.2-4.4,1.8-5.5C856.5,346.1,853,343.2,850.1,343.5z"/>
</g>
<g>
	<path d="M938.7,234.7c-2.7-1.5-4.8-4.5-6.7-7.2c-1.8-2.5-2.4-5.4,0.3-8c1-1,2.5-3.3,2.1-3.8c-1-1.4-2.8-2.3-4.4-3
		c-2.7-1.2-5.4-2.3-8.2-3.2c-2.2-0.7-4.6-1.6-6.7-1.2c-2.5,0.5-4.6,0.5-6.4,0.1c2,6.2,2.1,10,0.2,11.5c-1.3,1.1-3.3,0.7-5.4,0.2
		c-2.4-0.5-4.9-1-6.8,0.5c-0.8,0.7-1.2,1.4-1.6,2.2c-0.5,0.9-1,1.9-2.2,2.2c-1.4,0.3-2.4-0.5-3.6-1.4c-0.7-0.6-1.5-1.2-2.5-1.7
		c-4.2-2.3-10.6-2.1-12.1,0.3c-0.8,1.3-0.1,3,0.5,4.8c0.7,1.8,1.3,3.5,0.3,4.6c-0.8,0.9-2,0.6-3.2,0.3c-1.2-0.3-2.6-0.6-4.2-0.2
		c-2,0.5-2.8,1.8-3.8,3.5c-0.9,1.4-1.8,3-3.8,4.3c-2.8,1.8-5.3,1.5-7.8,1.2c-2.3-0.3-4.4-0.6-6.6,1c-3.4,2.3-5,7.4-4.5,10.8
		c0.3,2,1.2,3.3,2.1,4.6c1.1,1.6,2.1,3,1.9,5.3c-0.2,1.9-1.2,3-2.1,4.1c-1,1.1-2,2.3-2.4,4.6c-0.3,2,0,4,1,6.1
		c1.1,2.4,2.8,4.3,4.8,5.3c2.5,1.2,4.7,0.6,6.8,0.1c2.1-0.5,4.3-1.1,6.4,0.3c1.8,1.1,2.5,2.9,3,4.3c0.5,1.3,0.9,2.1,1.6,2.1
		c0.7,0.1,1.2-0.5,2-1.6c0.9-1.1,2.1-2.5,4.1-3.4c3-1.3,6-0.5,7.2-0.2c5.7,1.5,10.2,7.4,11.5,15c0.5-0.2,1-0.4,1.5-0.6
		c1.1-0.4,1.9-0.7,2.4-1.6c0.6-1,0.4-1.9,0.2-2.8c-0.2-0.9-0.3-1.8,0.3-2.6c1-1.2,2.9-0.8,5.4-0.2c1.7,0.4,3.6,0.9,5.8,1
		c2.3,0.1,5.8-0.6,10.5-2.1c5-1.6,10.2-3.9,14.8-6.1c-0.7-0.1-1.3-0.2-2-0.3c-1.2-0.1-2.8-2.5-3-3.9c-0.3-2.9,0.3-5.8,0.4-8.7
		c0-1,0-2.1-0.2-3.1c-1.2-5.6,1.1-8.4,6.7-8.5c2.4,0,4.9-0.4,7.2-1.2c1.1-0.3,2.4-1.6,2.6-2.7c0.9-3.7,1.9-7.6,1.7-11.4
		C944.1,240.3,942.6,236.9,938.7,234.7z"/>
</g>
<g>
	<path d="M913.3,335c-0.4-1.7-0.9-3.4-0.5-4.8c-3.6-2.2-7.1-3.3-10.7-3.4c-2.3,0-4.3,0.3-6,0.7c-2.5,0.5-4.7,1-6.8-0.3
		c-4.7-2.7-4.6-10.6-4.5-14.9l0-0.2c0.1-3.8,0.2-10,4.1-12.7c-1.2-7.4-5.4-13.1-10.9-14.5c-1-0.3-3.8-1-6.5,0.1
		c-1.8,0.8-2.8,2.1-3.7,3.1c-0.9,1.1-1.7,2-2.9,1.9c-1.4-0.1-1.9-1.4-2.4-2.8c-0.5-1.3-1.1-2.9-2.6-3.8c-1.7-1.1-3.5-0.7-5.6-0.1
		c-2.2,0.6-4.7,1.2-7.5-0.2c-2.2-1.1-4-3.1-5.2-5.7c-1-2.2-1.4-4.4-1-6.6c0.4-2.6,1.6-3.9,2.6-5.1c0.9-1,1.7-1.9,1.9-3.5
		c0.2-1.9-0.7-3.2-1.7-4.6c-0.9-1.3-2-2.8-2.3-5.1c-0.5-3.7,0.9-7.8,3.3-10.5c-6.3-2.6-10.8-3-13.4-1c-1,0.8-1.5,1.8-2.2,2.8
		c-0.9,1.5-1.9,3.3-4.3,4.6c-2,1.1-3.7,1.1-5.1,1.1c-1.4,0-2.7,0-4.2,0.9c-1.5,1-1.9,2-2.6,3.8c-0.5,1.4-1.1,3.1-2.6,5.4
		c-2.6,4-5.6,6.3-9.8,9.5c-2.7,2-4,2.7-5.4,3.4c-1.2,0.6-2.4,1.3-4.6,2.9c-3.6,2.7-5.3,4.6-6.7,6.3c-1.5,1.8-2.8,3.3-6,5.1
		c-2.5,1.4-4.4,2-6,2.4c-1.9,0.6-3.1,0.9-3.8,2.4c-1.1,2-0.4,4.3,0.1,6.3c0.5,2,1.1,3.9-0.2,5.2c-1.1,1.1-2.5,0.8-4.1,0.5
		c-1.6-0.3-3.5-0.7-5.8,0c-1.9,0.6-2.7,1.5-6.7,6.1c-0.7,0.8-1.5,1.7-2.4,2.7c-1,1.2-1.9,2.2-2.7,3.1c-3.3,3.8-4.9,5.5-4.6,6
		c0.3,0.6,2.3,0.2,4.1-0.2c3.1-0.7,7.1-1.5,9.4,0.7c1.6,1.5,1.5,3.5,1.5,5.9c-0.1,2.4-0.2,5.5,1.3,9.2c0.7,1.8,2.4,5.1,5.5,7.8
		c4.1,3.5,8.9,4.5,17.8,6.2c1.6,0.3,3,0.5,4.1,0.7c3.7,0.6,5.4,0.9,6.2,2.6c0.9,1.8-0.1,3.7-1,5.4c-0.9,1.7-1.8,3.5-1.3,5.3
		c0.6,2.2,3.1,4,7.5,5.3c0.7-0.7,1.4-1,2.3-1.4c1.1-0.5,2.5-1,4.6-2.9c3.3-2.7,4.6-5.1,5.7-7.1c1.1-2,2-3.7,4.4-4.9
		c3-1.6,5.5-1,7.9-0.4c2.2,0.6,4.4,1.1,6.9-0.1c3.6-1.8,5.4-5.9,6.9-9.2c1.3-3,2.3-5.3,4.3-4.9c0.8,0.2,1.3,0.7,1.8,1.3
		c0.6,0.6,1.2,1.4,2.5,1.9c1.9,0.8,3.6,0.4,5,0c0.4-0.1,0.9-0.2,1.3-0.2c3.3-0.4,7.1,2.6,11.4,9.2c1.3-0.4,2.6,0.2,4.1,0.9
		c1.5,0.7,3.3,1.5,5.5,1.5c2.5,0,3.9-1.4,5.4-3c1.4-1.5,3.1-3.2,5.9-4c2.6-0.8,4.2-0.3,6.2,0.3c1.6,0.5,3.5,1,6.6,1.2
		c2.4,0.1,14.6,0.4,18-5.6C914.7,340.4,913.9,337.5,913.3,335z"/>
</g>
<g>
	<path d="M907.6,207.9c-2.8-1.1-4.7-3.6-5.9-7.7c0-0.2,0-0.4-0.1-0.5c-8.8-8.7-3.5-19.7-4.9-29.7c-0.1-0.8,0.1-1.7,0-2.5
		c-0.4-4.2-5.3-8-9.2-6.5c-8.9,3.6-17.7,2.4-26.5,0.6c-7.3-1.5-14.4-1.8-21.4,1.9c-1.8,12.9-14.5,17.1-23.5,13.7
		c-5.6-2.2-11.3-1.8-16.8-2.8c-1.4,2.1-2.4,4.2-2.9,6.4c-0.6,2.3-0.6,4.2-0.6,5.8c0,2.4-0.1,4.5-1.8,6.9c-2.2,3.2-5.9,4.8-10,6.7
		c-2,0.9-3.5,1.4-4.7,1.7c-1.9,0.6-3,1-3.9,2.3c-1.9,2.6-1.6,6.1-0.8,8.4c0.8,2.2,3.1,5.4,5.9,5.5c1.3,0,2-0.6,3.1-1.6
		c0.9-0.8,2-1.8,3.8-2.7c4.1-2,9.2-2.3,13.1-0.7c2.7,1.1,4.1,2.7,5.3,4.1c1.3,1.5,2.4,2.8,4.6,3c1.3,0.1,2.2-0.2,3.2-0.5
		c1.1-0.4,2.2-0.7,3.9-0.4c2.4,0.5,3.8,2.3,5.1,4c0.4,0.5,0.8,1,1.3,1.5c3.8,4,6.7,8.8,8.7,14.2c3-0.9,7.1-0.2,12.6,2.2
		c0.2-0.2,0.5-0.4,0.7-0.6c2.5-1.7,5-1.4,7.3-1.1c2.4,0.3,4.6,0.6,7.1-1c1.8-1.2,2.7-2.6,3.5-4c1-1.7,2-3.3,4.4-3.9
		c1.8-0.5,3.4-0.1,4.7,0.2c1.2,0.3,1.8,0.4,2.2,0c0.6-0.6,0.1-2-0.5-3.5c-0.7-1.9-1.5-4-0.5-5.6c1.8-2.9,8.7-3.2,13.4-0.7
		c1.1,0.6,1.9,1.2,2.7,1.8c1.2,1,1.9,1.5,2.8,1.3c0.7-0.2,1.1-0.7,1.5-1.6c0.4-0.8,0.9-1.7,1.9-2.5c2.3-1.8,5.1-1.2,7.6-0.7
		c1.9,0.4,3.6,0.7,4.5,0C909.5,218.1,910.1,215.5,907.6,207.9z"/>
</g>
<g>
	<path d="M736.7,312.5c-7.8-3.5-10.8-4.8-15.2-4.3c-5.8,0.5-10.1,3.6-11.7,4.9c-2.5,2-3.3,3.6-4.2,5.4c-0.8,1.6-1.7,3.4-4,5.8
		c-2.8,2.9-4.9,3.8-7.2,4.9c-2.2,1-4.6,2.1-7.9,5.1c-4.5,4.1-6.9,8.3-7.9,10.1c-2.1,3.7-4.5,7.9-4.9,13.3c-0.3,4.5,0.9,7.1,2.1,9.7
		c1.2,2.6,2.3,5,1.7,8.9c-1.4,8.5-9.6,13.9-10,14.1c-3,1.9-5.8,2.6-8,3.1c-2.4,0.6-4.1,1-5.1,2.7c-1,1.7-0.4,3.4,1.2,7.9
		c0.3,1,0.7,2,1.1,3.2c0.5,1.6,1.1,3.2,1.6,4.7c2.5,7,4.6,13.1,4.6,19.9c0,1.6-0.1,3-0.1,4.3c-0.2,3.6-0.3,6.4,1.3,9.2
		c2,3.7,6.2,6.2,12.3,7.5c2.9-3.7,5.8-3.2,11.5-0.4c7.7,3.8,13.9,11.1,23.3,11.2c3.9,0.1,7.8-0.1,11.7-0.3c6.2-0.3,9.2,0.9,10.6,5.1
		c0.5-1.7,1.1-3.4,1.6-5.1c1.5-5,2.4-8.6,3.1-11.3c1.4-5.4,1.9-7.6,4.3-10.7l0.3-0.4c1.2-1.5,2.8-3.5,2.7-6.3c0-1.5-0.5-2.3-1.4-3.8
		c-0.6-1-1.2-2.2-2.1-3.9c-2.4-5.1-3.7-7.9-2.5-10.2c0.8-1.6,2.2-2,3.8-2.5c1.6-0.5,3.2-1,4.5-2.8c0.7-1,0.9-1.9,1.1-2.7
		c0.2-0.9,0.4-1.8,1.4-2.2c1.6-0.7,3,0.3,4.9,1.7c1.3,1,2.8,2.1,4.8,2.8c6.4,2.5,14.7-0.1,19.5-3.9c1.3-1.1,1.9-1.8,2.6-2.8
		c0.9-1.2,1.9-2.6,4.6-5.2c3.1-2.9,4.8-4.1,6-4.8c1-0.7,1.6-1,2.2-2.1c2-3.4,1.1-7,0.2-10.4c-0.9-3.6-1.8-7.3,0.5-10.6c0,0,0,0,0,0
		c-4.5-1.4-7.1-3.4-7.7-5.9c-0.6-2.2,0.5-4.2,1.4-6c0.9-1.7,1.6-3.2,1-4.5c-0.6-1.2-2-1.5-5.5-2c-1.2-0.2-2.5-0.4-4.2-0.7
		c-8.3-1.6-13.8-2.6-18.2-6.4c-3.3-2.8-5.1-6.4-5.8-8.2c-1.6-3.9-1.5-7.1-1.4-9.7c0.1-2.3,0.1-4-1.1-5.2c-2-1.9-5.6-1.1-8.5-0.5
		c-2.5,0.5-4.5,1-5.2-0.3c-0.6-1.1,0.2-2,3.7-6.1c-1.5-0.6-2.9-1.2-4.3-1.9C738.7,313.3,737.7,312.9,736.7,312.5z"/>
</g>
<g>
	<path d="M771.7,278.8c-1.2-4.3-4.8-8.2-7-7.8c-1.1,0.2-1.7,1.5-2.3,2.8c-0.7,1.5-1.5,3.1-3.2,3.5c-2.2,0.4-4.3-1.7-7.8-5.3
		c-1.4-1.5-2.2-2.4-3.6-4.2c-0.5-0.7-1.2-1.5-2-2.5c-6.3-7.6-7.5-8.4-8.1-8.8c-1.6-1-2.7-1.3-3.6-1.6c-1.2-0.4-2.1-0.6-3.1-1.9
		c-2.2-2.5-2.1-5.9-2-9.7c0.1-3.2,0.5-5.3,0.9-6.8c0.4-1.8,0.5-2.5,0-3.4c-1.8-2.6-7.9-1.9-11.4-0.7c-4.1,1.5-6.6,4.4-8.5,6.5
		c-1.1,1.3-2.5,3.7-5.1,8.1c-2.6,4.4-4.4,7.5-4.4,8.2c0,2.5,1.8,4,4,5.9c2.1,1.8,4.5,3.8,6,7.2c1.2,2.7,0.7,5,0.2,7.1
		c-0.5,2-0.9,3.5,0.3,5.1c1,1.4,2.4,1.9,3.7,2.3c1.3,0.5,2.6,0.9,3.1,2.3c0.8,2.1-0.9,4.2-2.9,6.7c-1.2,1.5-2.6,3.3-3.7,5.2
		c-2,4-2.4,8.9-1.1,14.7c2-1.5,6.2-4.1,11.6-4.6c4.6-0.4,7.6,0.9,15.6,4.4c1,0.4,2,0.9,3.1,1.4c1.5,0.7,3.1,1.3,4.6,2
		c0.1-0.1,0.2-0.2,0.3-0.3c0.8-0.9,1.7-1.9,2.7-3.1c0.9-1,1.7-1.9,2.4-2.7c4.2-4.8,5.1-5.8,7.2-6.4c2.5-0.8,4.6-0.3,6.3,0
		c1.6,0.3,2.5,0.5,3.2-0.2c0.9-0.9,0.4-2.4-0.1-4.2c-0.6-2.2-1.3-4.6,0-7c0.8-1.5,1.8-2,3.3-2.5
		C771.2,286.6,772.9,283.1,771.7,278.8z"/>
</g>
<path d="M823,225.6c-0.5-0.5-0.9-1-1.3-1.6c-1.3-1.6-2.6-3.2-4.6-3.6c-1.4-0.3-2.3,0-3.4,0.3c-1,0.3-2,0.7-3.6,0.5
	c-2.6-0.3-3.9-1.8-5.2-3.3c-1.2-1.4-2.5-2.9-4.9-3.9c-3.6-1.5-8.5-1.2-12.3,0.7c-1.7,0.8-2.7,1.7-3.6,2.5c-0.1,0.1-0.2,0.2-0.3,0.2
	c-0.6,1.2-1.4,2.3-2.5,3.3c-2.1,1.9-4.8,2.9-7.5,2.7c-2.2-0.2-3.4-2.4-4.6-4.7c-1.1-2.2-2.3-4.5-4.5-4.9c-1.7-0.3-3,0.7-4.5,1.9
	c-1,0.8-2.2,1.7-3.7,2.3c-4.3,1.8-8.1-0.7-11.7-3.2c-3.4-2.3-6.8-4.7-10.8-3.8c-2.8,0.6-6.1,2.8-7,5.7c-0.6,2.1,0.2,3.8,1.1,5.9
	c0.9,1.9,1.9,4,2,6.8c0.1,0.9,0,1.9-0.1,2.9c0.1,0.1,0.1,0.1,0.2,0.2c0.9,1.2,0.6,2.4,0.2,4.2c-0.3,1.5-0.8,3.5-0.9,6.6
	c-0.1,3.6-0.1,6.8,1.8,9c0.9,1,1.6,1.2,2.7,1.6c1,0.3,2.2,0.7,3.8,1.7c0.8,0.5,2,1.2,8.4,9c0.8,1,1.5,1.8,2,2.5
	c1.4,1.8,2.2,2.7,3.6,4.1c3.5,3.6,5.3,5.3,6.9,5c1.2-0.2,1.8-1.5,2.5-2.9c0.7-1.5,1.4-3,3-3.3c3.1-0.6,7,4.1,8.2,8.5
	c1.1,4,0,7.4-1.2,9.5c1.5-0.4,3.3-1,5.5-2.3c3-1.7,4.2-3.1,5.7-4.8c1.5-1.7,3.2-3.7,6.9-6.5c2.3-1.7,3.5-2.3,4.8-3
	c1.4-0.7,2.6-1.4,5.2-3.4c4.3-3.2,7.1-5.4,9.5-9.2c1.4-2.2,2-3.9,2.5-5.2c0.6-1.7,1.1-3.1,3-4.3c1.8-1.1,3.3-1.1,4.7-1.1
	c1.4,0,2.8,0,4.6-0.9c2.1-1.1,3-2.7,3.9-4.2c0.6-1.1,1.3-2.2,2.4-3.1c0.4-0.3,0.8-0.5,1.2-0.7C829.6,234.2,826.7,229.5,823,225.6z"
	/>
<path d="M796.9,173.9c-6.9-1.9-9-4.8-7.9-11.9c-4.4-3.1-8.7-6.1-12.9-9.1c-0.7-0.5-1.3-1-1.8-1.7c-1.5-2-2.5-5.1-4.4-5.8
	c-1.8-0.6-4.5,1.6-6.8,1.9c-3,0.4-6.1,0.1-9.2,0.1c-1.8,0-3.6-0.4-5.3-0.1c-5.2,0.8-10.4,2.3-15.7,2.8c-3.6,0.3-7.4-0.5-11.1-1.2
	c-8.4-1.7-16.8-3.8-25.1-5.7c-0.6-0.1-1.4-0.3-2-0.2c-1.2,0.3-2.3,0.5-3.4,0.6c-1,6.1-3.2,10.6-6.6,13.5c-0.7,0.6-1.6,1.2-2.3,1.7
	c-1.8,1.3-3.6,2.4-3.5,3.9c0.1,1.1,1.2,1.8,2.6,2.6c1.7,1,3.9,2.3,5.1,5c0.8,1.9,0.7,3.6,0.6,4.9c-0.1,1.4-0.1,2.1,0.5,2.7
	c0.8,0.7,1.8,0.4,3.4-0.1c1.6-0.5,3.5-1.1,5.8-0.7c3.1,0.5,4.6,2.5,8.1,6.7c0.7,0.9,1.5,1.9,2.5,3c3.1,3.7,4.6,5.1,5.8,6.4
	c1.2,1.1,2.2,2.1,4.2,4.6c3.9,4.9,7.4,10.2,10.6,16c1.6-1.8,4-3,6-3.4c4.4-1,8.1,1.5,11.6,3.9c3.6,2.4,6.9,4.7,10.7,3.1
	c1.3-0.6,2.4-1.4,3.5-2.2c1.6-1.3,3.2-2.5,5.3-2.1c2.6,0.5,4,3.1,5.2,5.4c1.1,2.1,2.1,4,3.7,4.1c2.4,0.2,4.8-0.7,6.7-2.4
	c0.4-0.4,0.7-0.7,1.1-1.2c-0.4,0.2-0.9,0.3-1.5,0.2c-3.1-0.1-5.7-3.3-6.8-6.2c-0.9-2.5-1.3-6.4,0.9-9.3c1.2-1.6,2.4-2,4.4-2.6
	c1.2-0.4,2.7-0.9,4.6-1.7c4-1.8,7.5-3.3,9.6-6.3c1.5-2.2,1.5-4,1.6-6.3c0-1.7,0.1-3.6,0.7-6c0.6-2.2,1.5-4.3,2.9-6.4
	C797.8,174.1,797.4,174,796.9,173.9z"/>
<path d="M627.6,464.7c-1.9,0.3-3.2,1.7-4.4,3.1c-1.2,1.4-2.4,2.7-4,2.5c-1.7-0.2-2.3-1.8-3.2-3.8c-0.8-1.9-1.9-4.3-4.1-6.7
	c-0.6-0.7-6.2-6.4-11.2-5.2c-2.7,0.6-4.3,3-5.6,5.2c-1.3,2-2.4,3.7-4.2,3.5c-2-0.2-2.9-2.5-3.9-4.8c-0.7-1.7-1.5-3.5-2.4-3.5
	c-1.1,0-2.1,2.3-3.1,4.7c-1.6,3.8-3.6,8.5-7.7,9.6c-1.9,0.5-3.4,0.1-4.8-0.3c-1.3-0.4-2.5-0.7-3.8-0.1c-1.8,0.9-2,3.3-2.1,5.9
	c-0.1,2.5-0.3,5.1-2.2,6.1c-1.3,0.7-2.5,0.2-3.7-0.3c-1.2-0.5-2.6-1.1-4.6-0.8c-4.2,0.6-8.2,4.7-8.7,8.9c-0.2,1.6,0.2,2.8,0.5,3.6
	c0.3,0.9,0.6,1.7,0.1,2.6c-1.4,2.2-6,1.1-11.3-0.1c-5.3-1.2-11.2-2.7-13-0.3c-0.9,1.2-0.6,2.9-0.3,4.7c0.3,1.8,0.7,3.7-0.7,4.6
	c-1.2,0.8-2.8,0.2-4.4-0.5c-1.8-0.7-3.9-1.6-5.8-0.7c-0.9,0.4-1.3,1-1.7,1.6c-0.4,0.6-0.8,1.2-1.8,1.5c-2.6,0.7-5-2.3-7.3-5.2
	c-1.7-2.1-3.5-4.3-4.7-4c-0.4,0.1-0.7,0.5-1,1.1c-1,1.9-1.2,5.9,0,9.2c0.9,2.3,2.2,3.6,5.1,6.5l0.4,0.3c2.1,2.1,3.7,3.5,4.9,4.7
	c2.2,2,3.4,3.2,5.3,5.5c2.5,3.2,4,6,5.3,8.4c2,3.7,2.9,6.3,3.5,8.1c0.8,2.3,1.2,3.5,2.8,4.7c1.8,1.3,3.3,1.3,5.1,1.4
	c1.6,0,3.5,0.1,5.8,1.1c3.1,1.3,5.8,3.7,7.9,7.1c1,0.3,1.9,0.6,2.9,1c5.6,2.3,11,5.1,16.7,6.9c4.6,1.4,9.6,2.1,14.4,2.2
	c5.5,0.1,7.5-5,9.6-8.7c1.5-2.7,2.9-5.9,0.9-10c-2.2-4.6,3.2-11.8,7.9-14c3-1.4,5.6-4.2,7.5-7c2.1-3,2.8-7,4.7-10.1
	c0.8-1.4,3.2-2.2,5-2.5c5.9-1,11.1-2.6,15-7.7c1.3-1.7,4.3-2,7.1-3.1c1.9-3.4,2.1-7-0.9-11c-2.2-3-0.1-21.2,2.9-22.8
	c0.4-0.2,0.8-0.4,1.2-0.6C631.4,465.3,629.4,464.5,627.6,464.7z"/>
<path d="M693.5,240.6c-0.8-0.5-1.4-0.7-2.7-1.2c-0.9-0.3-2.2-0.8-4.2-1.5c-3.8-1.5-6.2-2.6-7.9-3.4c-0.9-0.4-1.6-0.8-2.3-1.1
	c-4.6-1.9-8-1.6-14.6-0.9c-3.5,0.3-7.8,0.8-13.6,1c-0.2,0-4.4,0-13.6,0l-3.6,0c-23.8,0-26.3,0-29.1,2.1c-5.2,4.1-7,11.7-6.9,17
	c0,4.5,1.3,8.2,3.4,9.7c1.8,1.3,4.2,1.3,6.6,1.3c2.6,0,5,0,6.1,1.9c0.8,1.4,0.2,2.9-0.2,4.3c-0.4,1.2-0.8,2.3-0.3,3.2
	c0.4,0.6,1.2,0.6,2.9,0.4c1.7-0.1,4-0.3,7,0.3c2.2,0.5,4.3,0.9,4.6,2.4c0.3,1.3-0.9,2.2-2.3,3.3c-1.5,1.1-3.1,2.4-3.4,4.2
	c-0.3,1.9,1.2,3.5,2.6,5c1.3,1.4,2.6,2.8,2.1,4.3c-0.6,1.8-3.1,2.2-5.9,2.6c-2.8,0.4-5.6,0.8-6.4,2.7c-0.4,0.8-0.1,1.4,0.5,2.8
	c0.5,1.1,1.2,2.6,1.7,4.9c0.6,2.8,0.4,4.5,0.1,7.5c-0.2,1.5-0.4,3.4-0.5,5.9c0,0-0.2,3.1-0.2,10.7c0,1.1,0,2.2,0.1,3.4
	c1.8,0.7,3.6,1.5,6.1,1.4c3-0.1,4.4-1.2,6.2-2.6c1.6-1.2,3.5-2.8,6.9-4c4.7-1.6,7.7-1.1,11-0.5c3,0.5,6.4,1.2,11.8,0.1
	c4.4-0.8,8.1-2.4,10.9-3.5c3-1.2,4.6-1.9,5.3-0.9c0.5,0.8-0.2,1.7-1.2,3c-1.3,1.6-3,3.8-2.8,6.6c0.3,3.5,3.7,5.9,4.8,6.6
	c2.2,1.6,4.6,2.2,6.6,2.4c1.4-2.2,3.6-5.3,6.9-8.3c3.4-3.1,5.9-4.3,8.1-5.3c2.3-1,4.2-1.9,6.9-4.7c2.2-2.3,3-4,3.9-5.6
	c0.9-1.8,1.7-3.4,4.2-5.5c-1.4-6.2-1.1-11.5,1.1-15.8c1.1-2.1,2.5-3.9,3.8-5.4c1.9-2.3,3.3-4.1,2.7-5.7c-0.4-1-1.3-1.3-2.5-1.7
	c-1.3-0.4-2.9-1-4.2-2.7c-1.4-2-1-3.9-0.5-5.9c0.5-2,1-4-0.1-6.4c-1.4-3.2-3.7-5.1-5.7-6.8c-2.3-2-4.4-3.7-4.4-6.6
	c0-0.5,0.4-1.4,1.3-3C699.2,246.6,696.9,242.6,693.5,240.6z"/>
<path d="M666.7,332.9c-0.3-3.1,1.7-5.6,3-7.3c0.4-0.6,1.3-1.6,1.1-1.8c-0.2-0.3-2.6,0.6-4.1,1.3c-2.8,1.2-6.5,2.7-11.1,3.6
	c-5.5,1.1-9,0.4-12.1-0.1c-3.2-0.6-6.1-1.1-10.5,0.4c-3.3,1.1-5.1,2.6-6.6,3.8c-1.9,1.5-3.5,2.8-6.8,2.9c-2.8,0.1-4.7-0.8-6.6-1.6
	c-2.1-0.9-4-1.7-7-1.1c-1.9,0.4-2.8,1-3.8,1.8c-1,0.8-2.2,1.6-4.5,2.2c-3.3,0.8-5.3,0.1-7.2-0.4c-1.7-0.5-3.1-0.9-5.1-0.3
	c-2.6,0.8-3.7,2.7-4.9,4.6c-1.3,2.1-2.6,4.3-5.8,5.4c-2.4,0.9-4.3,0.6-5.9,0.4c-1.6-0.2-2.8-0.4-4,0.6c-1.6,1.3-1.7,3.3-1.8,5.4
	c-0.1,2.1-0.2,4.2-1.9,5.6c-2.1,1.6-4.8,0.7-7.4-0.2c-2.6-0.9-5.1-1.7-6.9-0.4c-1.1,0.8-2,2.3-2.3,4.2c-0.4,2.4,0,4.8,1.1,6.4
	c1.2,1.7,2.8,2,4.6,2.3c1.8,0.3,3.8,0.7,5.4,2.6c1.9,2.2,1.6,4.7,1.2,7c-0.3,2.3-0.6,4.6,0.8,7.1c1.4,2.4,3.4,3.3,5.5,4.2
	c2.5,1.1,5.1,2.3,6.8,5.8c1.7,3.5,1.3,5.7,0.7,7c-1.1,2.1-3.5,2.6-5.4,3.1c-0.4,0.1-0.9,0.2-1.2,0.3c0,0-0.1,0-0.1,0
	c0.9,1.1,1.8,2.3,2.4,3.6c1.6,3,1.7,5.2,1.8,7.4c0.1,2.1,0.2,4.1,1.6,6.5c1.6,2.9,3.6,4.2,5.8,5.5c1.1,0.7,2.3,1.4,3.4,2.3
	c4.9,4.2,7.4,11.5,7.4,21.9c0.6,0.8,1.1,1.9,1.6,3.1c0.8,2,1.7,4,3.1,4.2c1.2,0.1,2.2-1.4,3.3-3.1c1.4-2.2,3.2-4.9,6.2-5.6
	c5.4-1.3,11.1,4.3,12.1,5.5c2.4,2.5,3.5,5.1,4.3,7c0.9,2,1.4,3.1,2.4,3.2c1.1,0.1,2.1-0.9,3.2-2.2c1.3-1.5,2.7-3.2,5-3.5
	c2.2-0.3,4.5,0.8,7,3.1c3.3-1.3,7-2,10.6-2.4c5.3-0.6,10.7-0.7,16,0c7.2,1,10.6-3,13.5-8.3c0.5-0.9,0.9-1.7,1.4-2.3
	c-6.2-1.5-10.4-4.1-12.6-7.9c-1.8-3.1-1.6-6.1-1.4-9.8c0.1-1.3,0.1-2.7,0.1-4.2c0-6.6-2.1-12.6-4.6-19.6c-0.5-1.5-1.1-3.1-1.6-4.8
	c-0.4-1.2-0.8-2.3-1.1-3.2c-1.6-4.6-2.3-6.5-1.1-8.7c1.2-2.2,3.2-2.6,5.8-3.2c2.1-0.5,4.8-1.1,7.6-2.9c0.3-0.2,8.2-5.3,9.5-13.4
	c0.6-3.6-0.4-5.8-1.6-8.3c-1.2-2.6-2.5-5.4-2.1-10.2c0.4-5.6,2.9-9.9,5.1-13.7c0.2-0.3,0.4-0.7,0.6-1.1c-2-0.3-4.4-0.9-6.6-2.5
	C670.7,339.4,667.1,336.9,666.7,332.9z"/>
<path d="M578.2,433.9c-1.1-0.9-2.2-1.6-3.3-2.3c-2.2-1.3-4.5-2.7-6.2-5.9c-1.5-2.7-1.6-4.9-1.7-7c-0.1-2.1-0.2-4.3-1.7-7
	c-2.2-4.1-6.6-8.2-9.4-7.4c-1.3,0.4-1.7,1.5-2.5,3.9c-0.6,1.8-1.3,4-2.9,6.6c-3.1,5.1-10.5,12.7-17.2,11.6c-3.2-0.5-4.7-2.8-6.2-5
	c-1.6-2.3-3-4.4-6.1-5c-2.3-0.4-3.8,0.4-5.7,1.4c-2,1.1-4.4,2.4-8.5,2.6c-3.1,0.1-4.9-0.4-6.7-1c-1.6-0.5-3.2-1-5.6-1
	c-4.1,0.1-6.3,1.6-9.2,3.4c-1.6,1-3.3,2.2-5.6,3.2c-7.8,3.6-14.5,2.8-19.8,2.1c-5-0.6-9-1.1-12,2.1c-2.1,2.2-2.5,4.8-2.9,7.3
	c-0.5,2.8-0.9,5.8-3.8,7.8c-1.6,1.1-3.6,1.7-6,1.8c1,3.9,2.1,7.8,3.5,11.5c0.7,1.9,1.4,3.6,2,5.1c2.2,5.2,3.6,8.7,2.3,12.9
	c-1,3.1-2.5,5.1-4.6,6c-5.5,2.4-13.1-3.9-16-6.8c-1.7-1.6-3-3.2-4.1-4.5c-0.8-0.9-2.1-2.5-2.3-2.4c-0.3,0.1-0.2,1.6-0.1,2.3
	c0,0.4,0.1,0.8,0.1,1.3c0.1,4.6-1.6,7.6-9.3,18.8c-1,1.4-1.9,2.7-2.7,3.8c-2.6,3.6-4.4,5.9-3.9,8.9c0.6,3.7,4.3,7.3,8.3,7.9
	c3.1,0.5,5.8-0.9,8.1-2c2.1-1,3.8-1.9,5.2-0.9c0.9,0.7,0.8,1.7,0.7,2.9c-0.1,0.9-0.1,1.9,0.1,3c1.3,6.1,10.1,11.5,17.1,10.6
	c2.6-0.3,4.5-1.7,6.3-3c2-1.5,4-2.9,6.5-2.3c4.4,1,8.1,7.3,7.7,13.2c-0.3,4.6-3,7.4-5.7,10c-2.7,2.7-5.2,5.2-5.3,9.6
	c-0.2,5.9,4.2,10.6,5.5,12c2.8,2.7,5.8,4.3,9.1,4.9c2.4,0.4,4.4,0,18.4-5.6c4-1.6,5.7-2.4,6.8-2.8c1-0.4,1.3-0.5,2.3-0.9
	c2.7-0.9,4.8-1.5,6.5-1.9c2.9-0.7,4.4-1.1,5.6-2.6c1.3-1.6,1.4-3.2,1.5-8.7l0-1.4c0.2-7.5,0.5-10.6,0.7-12.3c0.1-1.4,0.2-1.8,0-3
	c-0.5-3.6-1.4-6.8-2.5-9.8c-0.3-0.2-0.5-0.5-0.8-0.8c-1.2-1.1-2.8-2.6-4.9-4.7l-0.4-0.3c-3-3-4.4-4.3-5.4-6.8c-1.4-3.7-1-8,0-10
	c0.4-0.9,1-1.4,1.7-1.6c1.8-0.5,3.6,1.7,5.7,4.3c2,2.5,4.4,5.4,6.3,4.9c0.6-0.2,0.8-0.5,1.2-1.1c0.4-0.6,0.9-1.4,2.1-1.9
	c2.3-1.1,4.7-0.1,6.6,0.6c1.5,0.6,2.7,1.1,3.5,0.6c0.8-0.6,0.6-2,0.3-3.6c-0.3-1.9-0.7-3.9,0.5-5.5c2.2-2.8,8.2-1.4,14.1,0
	c4.5,1.1,9.2,2.2,10.3,0.6c0.3-0.4,0.1-0.8-0.2-1.7c-0.3-0.9-0.8-2.2-0.6-4.1c0.6-4.6,5-9.1,9.6-9.8c2.2-0.3,3.8,0.3,5.1,0.9
	c1.2,0.5,2,0.8,2.9,0.3c1.4-0.8,1.6-3,1.7-5.3c0.2-2.8,0.3-5.6,2.7-6.7c1.7-0.8,3.1-0.4,4.5,0c1.3,0.4,2.6,0.7,4.2,0.3
	c3.7-1,5.6-5.5,7.1-9c1.3-3,2.3-5.4,4.1-5.3c0.2,0,0.5,0.1,0.7,0.2C585.2,444.6,582.8,437.8,578.2,433.9z"/>
<path d="M729.4,229.6c-0.2-2.6-1.1-4.6-1.9-6.4c-1-2.1-1.9-4.2-1.2-6.6c0.2-0.8,0.6-1.5,1.1-2.1c-3.1-5.9-6.7-11.3-10.7-16.2
	c-2-2.5-3-3.4-4.1-4.5c-1.3-1.3-2.7-2.7-5.9-6.5c-0.9-1.1-1.7-2.1-2.5-3c-3.4-4.1-4.8-5.9-7.5-6.3c-2.1-0.4-3.8,0.2-5.3,0.7
	c-1.7,0.5-3.2,1-4.4,0c-1.1-0.9-1-2.2-0.9-3.5c0.1-1.3,0.2-2.7-0.5-4.4c-0.8-1.9-2.3-3-3.7-3.9c-7.2-1.7-12-1.3-14.3,1.2
	c-1.5,1.6-1.8,3.9-2.1,6.1c-0.4,2.5-0.7,4.8-2.7,5.7c-3.2,1.3-7.5-2.6-9.9-4.8c-3.7-3.4-5.6-6.7-7.1-9.3c-1.5-2.6-2.5-4.3-4.3-4.5
	c-3.4-0.4-6.8,4.5-7.2,5.1c-2.3,3.5-2,6.5-1.5,10.6c0.4,3.4,0.9,7.5-0.1,13.2c-0.6,3.4-1.5,5.9-2.2,7.9c-1.1,3-1.7,4.8-0.5,7.2
	c1.1,2.1,2.7,3,4.5,4c1.5,0.8,3,1.7,4.4,3.2c3.7,4,4.7,10.8,2.8,20.2c4,0,6.2,0,6.3,0c5.8-0.2,10.1-0.6,13.6-1
	c6.6-0.7,10.3-1,15.1,1c0.7,0.3,1.5,0.7,2.4,1.1c1.8,0.8,4.1,2,7.9,3.4c2,0.8,3.2,1.2,4.2,1.5c1.3,0.5,2,0.7,2.9,1.3
	c3.4,2,5.7,5.9,7.1,11.3c0.7-1.2,1.5-2.6,2.6-4.4c2.8-4.8,4.1-7,5.2-8.2c1.9-2.2,4.5-5.2,8.9-6.8c3.2-1.1,8.6-2,11.5,0
	C729.4,230.9,729.4,230.2,729.4,229.6z"/>
<path d="M671.8,131.7c-3.7-4.1-7.1-5.1-11.2-1.6c-0.9,0.8-1.5,2.4-1.5,3.6c-0.1,5.8-3.1,9.3-8.8,8.9c-4.4-0.3-8.8-0.8-13-1.9
	c-0.6,2.3-0.9,4.8-1,7.5c-0.1,4.8,0.9,9,2.2,12.4c0.9-0.5,1.9-0.7,3-0.6c2.3,0.3,3.5,2.3,5,5c1.5,2.6,3.3,5.8,6.9,9.1
	c2,1.8,6.2,5.6,8.8,4.6c1.5-0.6,1.8-2.6,2.1-4.9c0.3-2.3,0.7-4.8,2.4-6.6c2.3-2.5,6.4-3.2,12.6-2.1c-0.9-0.6-1.5-1.4-1.6-2.4
	c-0.1-2,1.8-3.3,3.9-4.8c0.8-0.5,1.6-1.1,2.3-1.7c3.2-2.7,5.3-6.9,6.3-12.7C682.1,143.6,676.9,137.5,671.8,131.7z"/>
<path d="M551.3,127.6c0.6,1.1,1.7,1.5,3.1,2c1.6,0.6,3.4,1.3,4.6,3.3c1,1.7,0.8,3.1,0.6,4.5c-0.2,1.3-0.3,2.6,0.4,4.2
	c0.9,2,2.6,3,4,3.8c1.5,0.8,2.8,1.6,3.1,3.4c0.2,1.5-0.6,2.3-1.6,3.5c-0.9,1-1.9,2.1-2.8,4.1c-0.9,2.1-0.9,3.4-0.8,4.9
	c0,1.3,0.1,2.7-0.5,4.7c-1.6,5.9-5.9,9.6-7.2,10.6c-3.1,2.3-5.7,2.8-8,3.2c-2.1,0.4-3.8,0.7-5.2,2.4c-2.8,3.3-2.6,9.8,0.3,13.4
	c2,2.4,5.6,3.8,10.2,3.8c0,0,0,0,0,0c6.7,0,13.5-2.9,17-7.1c1.3-1.5,1.9-3,2.6-4.5c1-2.2,1.9-4.2,4.5-5.9c2.8-1.9,5.3-1.9,8.3-1.9
	c1.1,0,2.3,0,3.6-0.2c6.3-0.6,10-3.3,13.8-6.1c2.7-2,5.5-4,9.3-5.6c6.4-2.6,13.8-3,22.1-1.3c0.2-0.4,0.4-0.8,0.7-1.2
	c0.4-0.7,2.1-3,4.3-4.5c-1.4-3.5-2.4-7.9-2.4-12.9c0-2.8,0.4-5.4,1-7.7c-0.1,0-0.2,0-0.3-0.1c-2.8-0.8-5-3.5-7.6-5.2
	c-4.1-2.6-8.1-6-12.6-7.5c-6.1-1.9-12.7-3.1-19.1-3c-5.5,0.1-10.9,3.7-16.6,0.2c-0.7-0.4-2.2,0.5-3.3,0.4c-2.4-0.1-5.7,0.5-7.1-0.8
	c-4.3-3.8-8.4-1.9-12.7-0.9c-2.1,0.5-4.1,1-6.2,1.5C550.9,126.2,551,127,551.3,127.6z"/>
<g>
	<path class="st0" d="M529.6,264.9l-0.8,0.6c2,2.9,4.1,5.2,6.2,6.9c0.1-0.3,0.3-0.6,0.3-1C533.4,269.8,531.5,267.7,529.6,264.9z"/>
</g>
<path d="M527,257.1c2.5,0.4,5,2.1,6.9,4.8c2.1,3,3.1,6.6,2.5,9.4c-0.1,0.3-0.1,0.5-0.2,0.8c2.3,1.7,4.5,2.6,6.7,2.6
	c1.2,0,2.3-0.2,3.4-0.4c1.8-0.4,3.8-0.8,6.7-0.2c2.4,0.4,4.1,1.3,5.3,1.9c0.9,0.4,1.7,0.8,1.9,0.6c0.4-0.3-0.2-1.7-0.8-3.4
	c-1-2.5-2.3-5.8-2.7-10.2c-0.2-3-0.6-7.1,1.7-10.6c1.7-2.6,3.9-3.4,5.8-4c1.7-0.6,3.3-1.2,4.5-3c1.5-2.2,0.9-4.2,0.2-6.8
	c-0.7-2.6-1.6-5.7-0.6-10c0.8-3.5,2.2-5.6,3.5-7.6c1.5-2.1,2.6-3.8,2.1-6.6c-0.5-2.6-2.3-5.6-5-6.3c-1.7-0.4-3.7,0.2-8.6,4.2
	c-4.6,3.9-7,6.8-8.7,8.9c-1.9,2.3-3.1,3.9-5.8,4.9c-5.2,1.9-13,0.6-16.9-4.8c-2.5-3.4-3.1-8.2-1.7-12.3c-2.6,0.6-5.4,1.8-7.5,4.1
	c-1.8,2-2.6,4-3.9,7.8c-1.2,3.4-1.4,5.2-1.6,7c-0.2,1.5-0.3,2.9-1.1,5c-1.3,3.8-2.9,5.9-4.3,7.7c-1.5,1.9-2.8,3.6-3.5,7.1
	c-0.4,1.8-1.2,6.1,0.9,9.5c2.1,3.4,6.4,5.1,11,5c1.2-0.8,2.2-1.6,3.1-2.4C522.5,258.1,524.2,256.6,527,257.1z"/>
<path d="M527.2,352.5c-1.1-1.3-2-2.7-2.9-4c-2.2-3.2-4.2-6-8.2-7.6c-2.9-1.1-5.5-1-7.8-1c-2.7,0.1-5.1,0.1-6.7-1.8
	c-2.2-2.6-1.5-6.4-0.8-10.4c0.8-4.3,2.3-7.5,3.4-9.9c0.9-1.8,1.5-3.2,1.1-3.7c-0.4-0.4-1.4,0-2.7,0.4c-1.9,0.7-4.6,1.7-7.5,0.7
	c-1.9-0.6-2.8-1.7-3.7-2.9c-0.9-1.1-1.7-2.2-3.7-3.2c-2-1-3.4-0.9-4.8-0.9c-1.4,0-2.8,0.1-4.5-0.8c-1.8-0.9-3.3-2.5-4.4-4.2
	c-2,1.7-4.2,3.3-6.6,4.6c-3.2,1.8-5.6,2.3-8,2.9c-2,0.4-4.1,0.9-6.8,2.1c-5.1,2.3-8.3,5.5-15.1,12.4c-6,6.1-10.5,11.7-15.5,18.2
	c-22.4,29.5-20.9,34.8-20.2,37.4l0,0.2c1.2,4.7,3.1,7.5,5.2,8c1.1,0.2,2-0.1,3-0.5c1.1-0.4,2.2-0.8,3.2-0.1c1.1,0.7,1,2,1,3.3
	c0,1.2-0.1,2.4,0.7,3.5c1,1.4,2.5,1.5,4.3,1.5c1.8,0.1,3.8,0.2,5.3,1.7c1.6,1.7,1.4,3.8,1.2,6c-0.2,2.2-0.5,4.8,0.9,7.7
	c1,2,2.3,3.1,3.4,4c1.3,1.1,2.4,2,2.3,3.7c-0.1,1.9-1.5,3-2.8,4.1c-1.2,1-2.5,2-2.9,3.7c-0.7,2.7,1.5,5.3,3.8,8.1
	c0.4,0.4,0.7,0.9,1.1,1.3c1.9,2.4,3.7,4.9,5.3,7.7c1.5-0.2,2.8-0.7,3.9-1.5c2.6-1.8,3-4.4,3.4-7.1c0.4-2.7,0.9-5.4,3.2-7.8
	c3.4-3.6,7.8-3,12.9-2.4c5.2,0.6,11.7,1.4,19.3-2c2.2-1,3.9-2.1,5.5-3.1c2.9-1.9,5.4-3.5,9.7-3.6c2.7-0.1,4.3,0.5,6,1
	c1.8,0.6,3.4,1.1,6.3,1c3.8-0.2,6.1-1.4,8-2.5c2-1.1,3.7-2,6.4-1.5c3.5,0.6,5.2,3,6.8,5.4c1.5,2.1,2.8,4.1,5.6,4.6
	c5.9,1,13-5.9,16.2-11.1c1.5-2.5,2.2-4.6,2.8-6.4c0.8-2.3,1.3-4,3.2-4.5c2.3-0.6,5.1,1,7.4,3.5c0.2-0.1,0.4-0.1,0.5-0.2
	c0.4-0.1,0.8-0.2,1.3-0.3c1.8-0.4,3.8-0.9,4.8-2.6c0.6-1,0.9-2.9-0.7-6c-1.6-3.2-3.9-4.2-6.4-5.3c-2.2-1-4.4-2-6-4.6
	c-1.6-2.8-1.3-5.4-0.9-7.7c0.3-2.3,0.6-4.3-1-6.2c-1.4-1.6-3-1.9-4.8-2.3c-1.9-0.4-3.8-0.7-5.2-2.7c-0.9-1.3-1.4-3.1-1.5-5
	C536.5,361.1,531.1,357.3,527.2,352.5z"/>
<path d="M638.2,212.9c-1.3-1.4-2.8-2.2-4.2-3c-1.9-1.1-3.7-2.1-4.9-4.4c-1.4-2.7-0.6-4.9,0.5-8c0.7-2,1.6-4.4,2.1-7.7
	c1-5.5,0.5-9.4,0.1-12.9c-0.4-3.4-0.7-6.2,0.5-9.2c-8-1.6-15.1-1.2-21.3,1.3c-3.8,1.5-6.5,3.5-9.1,5.4c-4,2.9-7.7,5.6-14.3,6.3
	c-1.3,0.1-2.5,0.1-3.7,0.2c-2.9,0-5.2,0.1-7.7,1.8c-2.4,1.6-3.2,3.4-4.2,5.5c-0.7,1.5-1.4,3.1-2.7,4.7c-3.7,4.5-10.8,7.5-17.8,7.5
	c0,0,0,0,0,0c-3.9,0-7.1-0.9-9.4-2.7c-2.2,1.2-3.9,2.3-5.2,3.3c-4.2,2.9-6.5,4.5-7.7,6.6c-0.1,0.4-0.1,0.4-0.5,1.1
	c-1.6,3.8-1,8.6,1.4,11.9c3.7,5.1,10.9,6.3,15.8,4.5c2.5-0.9,3.6-2.3,5.4-4.5c1.7-2.2,4.1-5.1,8.8-9c4.6-3.8,7.1-5,9.4-4.4
	c3,0.7,5.2,4.1,5.7,7.1c0.6,3.1-0.8,5.1-2.3,7.3c-1.3,1.8-2.7,3.9-3.4,7.2c-0.9,4-0.1,7,0.6,9.6c0.7,2.7,1.4,5-0.3,7.6
	c-1.4,2.1-3.2,2.7-5,3.4c-1.9,0.7-3.8,1.3-5.3,3.6c-2.1,3.2-1.8,7-1.6,10c0.3,4.3,1.6,7.5,2.6,9.9c0.9,2.2,1.5,3.7,0.5,4.5
	c-0.3,0.2-0.5,0.3-0.8,0.3c-0.6,0-1.3-0.3-2.2-0.8c-1.2-0.6-2.8-1.4-5.1-1.8c-2.7-0.5-4.5-0.1-6.3,0.2c-1.2,0.2-2.3,0.5-3.6,0.4
	c-2.4-0.1-4.7-0.9-7.1-2.7c-0.4,0.7-0.9,1.3-1.4,2c-0.9,1.1-2,2.3-3,4.7c-0.6,1.4-2.4,5.6-1.6,10.4c0.3,2,0.9,2.9,2.2,5
	c0.8,1.3,1.9,3.1,3.4,5.8c3.4,6.3,5,9.4,4.4,11.7c-0.7,2.3-2.5,3.2-4.7,4.3c-2.1,1-4.7,2.3-7.1,5.2c-3.1,3.9-4.3,7.4-3.6,10.6
	c1.1,5,7.3,8.6,12.6,9.3c2.1,0.3,3.9,0,5.3-0.1c1.8-0.2,3.3-0.4,4,0.7c0.8,1.1,0.1,2.5-0.6,4.1c-0.8,1.6-1.7,3.4-1.3,5.4
	c0.3,1.5,1.2,2.9,2.9,4.2c2.1-0.8,4.5,0,6.9,0.8c2.5,0.8,4.8,1.6,6.5,0.4c1.4-1,1.4-2.9,1.5-4.8c0.1-2.2,0.2-4.6,2.2-6.2
	c1.6-1.2,3.1-1,4.8-0.8c1.5,0.2,3.2,0.5,5.4-0.3c2.9-1,4-3,5.3-5c1.2-2,2.5-4.1,5.4-5c2.3-0.8,4-0.3,5.7,0.3
	c1.8,0.5,3.7,1.1,6.7,0.4c2.2-0.5,3.2-1.3,4.2-2c1-0.8,2.1-1.6,4.2-2c2.7-0.5,4.7,0,6.6,0.8c0-1-0.1-2-0.1-3
	c0-7.7,0.2-10.8,0.3-10.8c0.2-2.5,0.4-4.4,0.5-5.9c0.3-3,0.5-4.6,0-7.2c-0.5-2.2-1.1-3.6-1.7-4.7c-0.6-1.3-1.1-2.3-0.6-3.6
	c1-2.4,4.3-2.8,7.2-3.3c2.4-0.4,4.7-0.7,5.1-1.9c0.3-1-0.7-2.1-1.9-3.3c-1.5-1.6-3.2-3.4-2.9-5.8c0.3-2.2,2.2-3.7,3.8-4.8
	c1.1-0.8,2.1-1.6,2-2.2c-0.2-0.8-2.2-1.3-3.9-1.6c-2.8-0.6-5.1-0.4-6.7-0.3c-1.8,0.1-3.2,0.2-3.8-0.9c-0.8-1.3-0.3-2.7,0.2-4.1
	c0.4-1.3,0.8-2.4,0.3-3.5c-0.8-1.4-2.8-1.4-5.2-1.4c-2.4,0-5.2,0-7.2-1.5c-2.3-1.8-3.8-5.7-3.8-10.5c-0.1-5.5,1.8-13.5,7.3-17.8
	c3-2.4,5.5-2.4,29.7-2.4l3.6,0c2.4,0,4.4,0,6.2,0C642.6,223.3,641.7,216.7,638.2,212.9z"/>
<path d="M543.4,352.3c-0.4-2.3,0.6-4.4,1.4-6.1c0.7-1.5,1.2-2.5,0.7-3.1c-0.4-0.6-1.3-0.5-3.1-0.3c-1.5,0.2-3.4,0.4-5.6,0.2
	c-5.6-0.7-12.1-4.5-13.4-10.1c-0.8-3.5,0.5-7.3,3.8-11.4c2.5-3.1,5.2-4.4,7.4-5.5c2.1-1,3.6-1.8,4.2-3.7c0.6-1.9-1.1-4.9-4.3-11
	c-1.5-2.7-2.6-4.5-3.4-5.8c-1.3-2.1-2-3.2-2.3-5.4c-0.8-5,1.1-9.5,1.7-10.9c1.1-2.6,2.3-3.9,3.2-5c0.6-0.7,1.4-1.9,1.4-1.9l0.3-1
	c0,0,0-0.2,0.1-0.3c0.5-2.6-0.4-5.9-2.4-8.7c-1.7-2.5-4-4.1-6.2-4.4c-2.3-0.4-3.7,0.8-5.6,2.5c-0.5,0.5-1.1,0.9-1.7,1.4
	c-1.5,1.1-0.5,1.1-1.7,1.2c-1.6,1-3.7,2-6.4,2.6c-1.5,0.3-2.8,0.5-4.1,0.6c-2.7,0.3-4.7,0.5-5.6,2.1c-0.5,0.8-0.5,1.6-0.4,2.5
	c0.1,0.9,0.1,2-0.6,3.2c-1,1.7-2.6,2-4.3,2.3c-1.3,0.3-2.7,0.6-4.2,1.5c-2.1,1.4-2.6,3-3.1,5c-0.5,1.8-1.1,3.8-3.1,6
	c-2.6,2.8-5.6,3.4-7.9,4c-2.1,0.5-3.8,0.9-4.6,2.6c-0.8,1.7-0.4,4.2,0.8,6.4c0.9,0.1-0.1,0.1,0.5,0.9c1,1.7,2.5,3.2,4.1,4
	c1.5,0.8,2.7,0.8,4,0.7c1.4,0,3.1-0.1,5.3,1c2.2,1,3.2,2.3,4.1,3.4c0.8,1.1,1.6,2,3.2,2.5c2.6,0.9,4.9,0,6.8-0.7
	c1.6-0.6,2.9-1.1,3.7-0.2c0.9,1,0.2,2.5-0.9,4.8c-1.1,2.3-2.6,5.4-3.3,9.6c-0.7,3.8-1.3,7.4,0.6,9.6c1.4,1.6,3.4,1.6,5.9,1.5
	c2.4-0.1,5.1-0.1,8.2,1c4.3,1.6,6.3,4.6,8.7,7.9c0.9,1.3,1.8,2.6,2.9,3.9c3.8,4.6,8.9,8.2,15.4,10.9c0-0.4,0.1-0.7,0.1-1.1
	c0.4-2.2,1.4-3.9,2.8-4.9c0,0,0,0,0,0C544.7,355.4,543.7,353.9,543.4,352.3z"/>
<path d="M563.5,146.3c-1.5-0.9-3.3-1.9-4.4-4.2c-0.9-1.9-0.7-3.4-0.5-4.8c0.2-1.3,0.3-2.5-0.5-3.9c-1-1.7-2.6-2.3-4.1-2.9
	c-1.4-0.5-2.8-1.1-3.6-2.5c-0.4-0.8-0.6-1.7-0.5-2.7c-1.9,0.4-3.7,0.8-5.6,1c-0.9,0.1-2,0.1-3.1-0.1c-2.4,2.8-4.4,6-5.9,9.4
	c-0.7,1.7-0.9,3-1.1,4.1c-0.2,1.4-0.3,2.4-1.4,3.2c-1.9,1.4-4.1,0.6-7-0.3c-2.6-0.9-5.9-2-10-1.7c-3.5,0.2-6.7,1.2-9.3,2.9
	c-4.1,2.7-5.2,6.1-6.4,9.8c-1.2,3.5-2.4,7.2-6.4,10.2c-2.3,1.7-4.5,2.5-6.3,3.1c-2.3,0.8-4,1.4-4.6,3.4c-0.7,2.2,0.1,5.2,2,6.8
	c0.8,0.7,2,1.3,9.9,1.6c1.5,0.1,2.7,0.1,3.6,0.1c3.3,0.1,4.1,0.1,5.2,1c1.6,1.4,1.6,3.3,1.5,5.4c0,1.5-0.1,3.3,0.4,5.3
	c1.7,7.5,8.9,12.9,15.3,15c2.4,0.8,4.9,1.1,7.5,1.1c1.4-2.2,3.7-3.9,7.9-6.7c1.3-0.9,2.9-2,5-3.2c-0.3-0.3-0.5-0.5-0.8-0.8
	c-3.3-3.9-3.4-10.9-0.3-14.6c1.7-2,3.6-2.3,5.8-2.7c2.2-0.4,4.7-0.8,7.6-3c0.9-0.7,5.3-4.3,6.8-10.1c0.5-1.9,0.5-3.2,0.5-4.5
	c0-1.6-0.1-3,0.9-5.3c0.9-2.2,2-3.4,2.9-4.4c1-1.1,1.5-1.7,1.4-2.7C565.9,147.7,564.8,147.1,563.5,146.3z"/>
<path d="M393.9,171.7c0.5,1.6,1,3,1.7,4.5c1.3,3.2,2.8,6.7,3.2,12.3c0.3,3.6,0.7,9.6-2.8,12.6c-1.1,0.9-2.1,1.2-3.1,1.5
	c-1.1,0.3-2.3,0.7-3.7,2c-0.9,0.8-2.1,2.3-3.4,6.1c-1.5,4.6-1.8,8.5-1.9,10.8l0,0.5c-0.5,6.8-1.8,11.6-2.7,14.8
	c-0.7,2.5-1.2,4.2-0.5,4.6c1.4,0.9,6.3-2.3,9.2-6.7c1.5-2.2,1.8-3.7,2.2-5.4c0.4-1.7,0.8-3.4,2.3-5.8c1.4-2.1,2.5-2.9,4.8-4.6
	c1.1-0.8,2.5-1.8,4.3-3.3c3.3-2.7,7.1-5.7,10.3-9.4c3.3-3.9,4.6-6.7,5.7-9.2c1.2-2.7,2.3-5.1,5.6-7.5c5.5-4,9.8-4.1,12.5-3.6
	c1.8,0.4,2.7,1,3.7,1.8c1,0.7,2.1,1.6,4.5,2.6c1.8,0.7,6.7,2.7,12.1,1.5c2.2-0.5,4.6-1.1,5.8-3c0.7-1.2,0.7-2.5,0.7-3.7
	c0-1.3-0.1-2.6,1-3.4c0.9-0.7,2-0.6,3-0.4c0.9,0.1,1.6,0.3,2.1-0.2c0.4-0.4,0.5-0.9,0.5-2c0-0.8,0.1-2,0.3-3.5
	c0.3-1.9,0.7-3.7,1.6-4.8c1.9-2.4,6.3-1.9,9.5-1.2c0.9-2,2.8-2.7,5-3.4c1.8-0.6,3.9-1.4,6-3c3.8-2.8,4.9-6.3,6-9.7
	c1.2-3.6,2.4-7.4,6.8-10.3c2.7-1.8,6.1-2.8,9.7-3.1c4.3-0.3,7.6,0.9,10.4,1.8c2.7,0.9,4.6,1.6,6,0.5c0.8-0.6,0.9-1.3,1-2.6
	c0.2-1.1,0.3-2.6,1.1-4.4c1.5-3.3,3.4-6.4,5.7-9.2c-1-0.3-1.9-0.7-2.2-1.3c-2.5-4.8-7.8-5-11.3-8.1c-2.4-2.1-6-2.8-8.6-4.8
	c-1.5-1.2-2.2-3.5-3.2-5.4c-4,0-8,0-12,0c-0.2,6.6-4.7,9.9-9.9,11.9c-2.7,1-3.9,1.9-3.9,4.6c0.1,3.3-1.6,4.3-4.8,3.8
	c-2.8-0.4-5.6-0.3-6.4,3.4c-0.1,0.3-0.4,0.6-0.7,0.7c-4.9,1.9-9.8,3.7-14.8,5.5c-1.6,0.6-3.7,1-4.6,2.2c-3.1,4-7.1,1.1-10.5,1.5
	c-0.7,0.1-1.5-2.2-2.5-3.6c-3.6,0.7-7.6-0.4-11.2,3.5c-2.3,2.5-7.3,2.6-11,3.9c-0.6,0.2-1.5,0.2-1.8,0.7c-3.2,5.8-8.8,4.3-13.7,4.3
	c-4.2,0-8,1-11.6,2.6C392.7,158.9,392.1,165.8,393.9,171.7z"/>
<path d="M457.1,199.9c0.1,3.7,0.2,6.5,0.2,8.5c0.2,5,0.2,6.3-0.8,8.5c-1.9,4.1-5.6,6.5-12.9,11.2c-2.3,1.5-4.2,2.5-5.7,3.4
	c-2.2,1.2-3.9,2.2-3.8,2.8c0.2,1.1,4.5,1.9,9.3,1.8c3.1,0,5-0.5,6.8-1c2-0.5,3.7-0.9,6.1-0.2c0.5,0.1,5.1,1.5,7.5,5.7
	c1.3,2.3,1.5,4.4,1.6,6c0.1,0.9,0.1,1.7,0.4,1.8c0.7,0.2,2.4-2.1,3.7-3.8c2.1-2.9,4.3-5.9,6.5-5.5c1.2,0.3,1.7,1.5,2.1,2.7
	c0.5,1.4,1,2.9,2.6,4.1c2,1.5,4.2,1.5,6.1,1.5c1.8,0,3.3-0.1,4,1.2c1.3,2.2-1.6,5.8-5.5,10.8c-2.9,3.7-4.9,6.2-8.4,8.4
	c-1.2,0.7-2.1,1.2-2.8,1.5c-1.2,0.6-1.8,0.9-2.3,1.8c-0.6,1.1-0.4,1.9,0,3.8c0.2,1.2,0.6,3,0.8,5.4c0.2,1.9,0.2,2.9,0.2,3.8
	c0,1,0,1.7,0.3,2.9c0.4,1.9,1.2,3.7,2.3,5.5c0.7-0.3,1.5-0.4,2.4-0.6c2.4-0.5,5-1.1,7.4-3.7c1.8-1.9,2.4-3.8,2.9-5.5
	c0.6-2,1.1-4,3.6-5.5c1.6-1,3.2-1.4,4.5-1.6c1.6-0.3,2.9-0.6,3.7-1.9c0.6-0.9,0.5-1.7,0.5-2.6c-0.1-0.9-0.1-1.9,0.5-3
	c1.2-2,3.5-2.3,6.4-2.6c1.2-0.1,2.6-0.3,4-0.6c1.8-0.4,3.3-1,4.6-1.6c-4.3-0.3-8-2.2-10.1-5.5c-2.3-3.7-1.4-8.2-1.1-10.2
	c0.7-3.7,2.2-5.6,3.7-7.5c1.4-1.8,2.9-3.7,4.1-7.4c0.7-2.1,0.8-3.4,1-4.8c0.2-1.7,0.4-3.7,1.7-7.2c1.2-3.6,2.1-6,4.1-8.2
	c2.5-2.7,5.7-4,8.6-4.6c-2.5,0-4.9-0.4-7.2-1.1c-6.7-2.1-14.2-7.8-16-15.7c-0.5-2.2-0.4-4.1-0.4-5.6c0.1-2.1,0.1-3.6-1.2-4.7
	c-0.8-0.6-1.4-0.7-4.6-0.8c-1,0-2.2-0.1-3.6-0.1c-8.3-0.4-9.5-0.9-10.6-1.9c-2-1.8-3-5-2.4-7.5c-3.5-0.8-7-0.9-8.4,0.8
	c-0.8,1-1.1,2.6-1.4,4.4c-0.3,1.4-0.3,2.5-0.3,3.3c0,1.2-0.1,2-0.8,2.7c-0.9,0.8-2,0.6-3,0.5c-0.9-0.1-1.6-0.3-2.2,0.2
	c-0.6,0.5-0.6,1.3-0.6,2.6c0,1.2,0.1,2.8-0.8,4.3c-1.4,2.3-4.2,3-6.4,3.5c-0.3,0.1-0.6,0.1-0.9,0.2C457,195.2,457,197.6,457.1,199.9
	z"/>
<g>
	<path class="st0" d="M339,311.2c-0.1,0.1-0.2,0.2-0.3,0.3C338.8,311.4,338.9,311.3,339,311.2z"/>
</g>
<g>
	<path class="st0" d="M339.8,310.3c0.9-0.8,1.9-1.4,3-2C341.7,308.9,340.7,309.5,339.8,310.3L339.8,310.3z"/>
</g>
<g>
	<path class="st0" d="M342.8,307.2c0.2-0.1,0.5-0.2,0.7-0.4C343.2,306.9,343,307,342.8,307.2z"/>
</g>
<g>
	<path class="st0" d="M343.9,307.7c-0.4,0.2-0.7,0.4-1.1,0.5C343.2,308.1,343.6,307.9,343.9,307.7z"/>
</g>
<g>
	<path class="st0" d="M342.1,307.5c0.1-0.1,0.2-0.1,0.3-0.2C342.3,307.4,342.2,307.5,342.1,307.5z"/>
</g>
<g>
	<path class="st0" d="M341.4,307.9c0.1,0,0.1-0.1,0.2-0.1C341.5,307.8,341.5,307.9,341.4,307.9z"/>
</g>
<g>
	<path class="st0" d="M339.1,309.6c0,0,0.1-0.1,0.1-0.1C339.1,309.6,339.1,309.6,339.1,309.6z"/>
</g>
<g>
	<path class="st0" d="M339.7,309.1C339.7,309.1,339.7,309.1,339.7,309.1C339.7,309.1,339.7,309.1,339.7,309.1z"/>
</g>
<g>
	<polygon class="st0" points="338.6,310.1 338.6,310.1 338.6,310.1 	"/>
</g>
<path d="M489.9,249.1c-0.4-0.7-1.4-0.7-3.1-0.7c-2,0-4.5,0.1-6.8-1.7c-1.8-1.4-2.4-3.2-2.9-4.6c-0.4-1.2-0.7-1.9-1.4-2.1
	c-1.6-0.3-3.8,2.7-5.5,5.1c-1.9,2.6-3.4,4.7-4.8,4.2c-0.9-0.3-1-1.4-1.1-2.7c-0.1-1.5-0.2-3.5-1.4-5.5c-2.2-3.8-6.5-5.1-7-5.3
	c-2.2-0.6-3.6-0.3-5.6,0.2c-1.7,0.4-3.8,1-7,1c-0.8,0-5.9,0-8.6-1.1c-0.4,0.3-0.8,0.6-1.2,1c-1.1,1-1.6,1.9-2.3,2.9
	c-0.6,0.8-1.2,1.8-2.2,3c-1.5,1.8-2.5,2.5-3.1,3c-0.6,0.4-0.9,0.7-1.5,1.6c-1,1.8-0.9,3.3-0.8,5c0.1,1.7,0.3,3.5-0.8,5.6
	c-1.2,2.2-2.7,3.9-4.1,5.1c-0.3,3.3-3.3,9-5.4,12.7c-1.7,2.9-3,4.8-4,6.1c-1.4,1.9-2.1,2.9-2.4,5c-0.4,2.7,0.2,4.3,1,6.2
	c0.7,1.7,1.5,3.6,1.7,6.7c0.2,2.5-0.1,5.1-5,17.7c-1.5,3.7-3,6.3-4.3,8.3c-1.8,2.9-3,4.9-2.7,7.9c0,0.4,0.1,0.9,0.2,1.3
	c0.3,1.7,0.6,3.4-0.6,4.6c-1.1,1.1-2.6,1-7.2,0.7c-1.5-0.1-2.8-0.2-3.8-0.3c-3.6-0.3-4.3-0.4-4.9,0c-2.3,1.5-1.7,6.4-1.3,10.1l0,0.2
	c0.7,6.2,1.3,12.8,1.8,19.7c3.8-0.3,9.5-6.3,12.5-12.1c0.9-1.7,1.3-3.1,1.9-4.8c0.7-2.2,1.7-5,3.8-9.7c1.9-4.1,2.8-5.4,3.6-6.3
	c1.7-2.2,6.8-8.7,12.3-7.4c3.9,0.9,6.8,5.3,7.3,10.7c4.2-5.4,8.3-10.3,13.5-15.6c6.4-6.5,9.9-10.1,15.4-12.6c2.8-1.3,4.9-1.7,7-2.2
	c2.4-0.5,4.7-1,7.8-2.8c2.4-1.3,4.5-2.9,6.6-4.6c-1.4-2.6-1.9-5.5-0.9-7.5c0.5-1,1.2-1.7,2-2.1c-1.1-1.8-1.9-3.7-2.4-5.7
	c-0.3-1.3-0.3-2.1-0.3-3.1c0-0.9,0-1.9-0.2-3.7c-0.2-2.4-0.6-4.1-0.8-5.3c-0.4-2-0.6-3.1,0.1-4.5c0.6-1.2,1.5-1.6,2.7-2.2
	c0.7-0.3,1.6-0.8,2.7-1.5c3.4-2.1,5.1-4.4,8.1-8.1C487.8,254.5,490.8,250.7,489.9,249.1z"/>
<path d="M417.7,262.6c0-0.4-0.1-0.7-0.3-0.9c-0.3-0.2-0.9,0-2.1,0.5c-1.3,0.5-3.1,1.3-5.7,1.8c-3,0.6-8.1,1.5-8.8-0.3
	c-0.4-0.9,0.5-1.7,1.8-2.8c1.6-1.4,3.8-3.3,5-6.5c1.2-3.1,1.1-6.4,0.2-6.9c-0.4-0.2-1,0.3-1.8,0.9c-1.1,0.8-2.7,2-4.7,1.9
	c-2.1,0-3.5-1.3-4.5-2.4c-1-0.9-1.6-1.5-2.4-1.4c-1.3,0.2-1.9,1.9-2.7,4.4c-1,3.1-2.3,7.2-6.1,10.5c-1.9,1.6-3.3,2.1-4.4,2.5
	c-1.2,0.4-1.9,0.7-2.7,1.9c-1.6,2.5-0.7,5.2,0.5,8.9c1,3.1,2.3,7,2.4,11.8c0.1,7-2.3,13.8-4.5,16.1c-0.6,0.6-1.2,0.9-1.8,0.9
	c-2.3,0-3.9-5.2-5.8-12.5c-0.7-2.5-1.5-5.6-2-6.5c-0.1,0.5-0.2,1.4-0.2,2.5c-0.1,0.9-0.1,1.9-0.2,3.2c-0.4,5.1-0.2,8.1,0.1,11.3
	c0.2,2.7,0.5,5.4,0.4,9.5c-0.1,1.8-0.1,2.4-0.3,3.7c-0.2,1.5-0.6,4.1-1.2,10.9c-0.3,3.4-0.3,4.1-0.4,5c0,0.9-0.1,2.2-0.5,7l-0.1,1.8
	c-0.3,4-0.4,4.6,0,5.7c0.7,2.7,2.3,4,4.3,5.6c1.2,0.9,2.5,2,3.9,3.5c3.7,4.1,4.6,8.2,5.3,11.1c0.6,2.8,1,4.2,2.7,4.6c0,0,0,0,0,0
	c-0.5-6.8-1.1-13.3-1.8-19.5l0-0.2c-0.5-3.9-1.1-9.2,1.8-11c0.9-0.6,1.6-0.5,5.5-0.2c1,0.1,2.3,0.2,3.8,0.3c4.5,0.4,5.7,0.4,6.3-0.3
	c0.8-0.8,0.6-2.2,0.3-3.7c-0.1-0.5-0.2-0.9-0.2-1.4c-0.4-3.4,1-5.6,2.8-8.6c1.2-2,2.8-4.5,4.2-8.2c4.9-12.4,5.1-15,5-17.3
	c-0.2-2.9-1-4.7-1.7-6.3c-0.8-2-1.6-3.8-1.1-6.8c0.4-2.4,1.2-3.5,2.6-5.4c1-1.3,2.3-3.1,3.9-6c2.7-4.7,4.6-8.8,5.2-11.3
	C418,263,417,263,417.7,262.6z"/>
<g>
	<path d="M341.6,307.8c0.2-0.1,0.3-0.2,0.5-0.3C341.9,307.6,341.8,307.7,341.6,307.8z"/>
</g>
<g>
	<path d="M341.6,307.8c0.2-0.1,0.3-0.2,0.5-0.3C341.9,307.6,341.8,307.7,341.6,307.8z"/>
</g>
<g>
	<path d="M339.7,309.1c0.5-0.4,1.1-0.8,1.7-1.1C340.8,308.3,340.3,308.6,339.7,309.1z"/>
</g>
<g>
	<path d="M339.7,309.1c0.5-0.4,1.1-0.8,1.7-1.1C340.8,308.3,340.3,308.6,339.7,309.1z"/>
</g>
<g>
	<path d="M342.4,307.4c0.1-0.1,0.3-0.1,0.4-0.2C342.7,307.2,342.5,307.3,342.4,307.4z"/>
</g>
<g>
	<path d="M342.4,307.4c0.1-0.1,0.3-0.1,0.4-0.2C342.7,307.2,342.5,307.3,342.4,307.4z"/>
</g>
<g>
	<path d="M339.2,309.5c0.2-0.2,0.3-0.3,0.5-0.4C339.5,309.2,339.3,309.4,339.2,309.5z"/>
</g>
<g>
	<path d="M339.2,309.5c0.2-0.2,0.3-0.3,0.5-0.4C339.5,309.2,339.3,309.4,339.2,309.5z"/>
</g>
<g>
	<path d="M342.9,308.2c0,0-0.1,0-0.1,0.1C342.8,308.3,342.9,308.3,342.9,308.2z"/>
</g>
<g>
	<path d="M342.9,308.2c0,0-0.1,0-0.1,0.1C342.8,308.3,342.9,308.3,342.9,308.2z"/>
</g>
<g>
	<path d="M338.6,310.1c0.2-0.2,0.3-0.3,0.5-0.5C338.9,309.8,338.7,310,338.6,310.1z"/>
</g>
<g>
	<path d="M338.6,310.1c0.2-0.2,0.3-0.3,0.5-0.5C338.9,309.8,338.7,310,338.6,310.1z"/>
</g>
<g>
	<path d="M338.7,311.5c-0.2,0.2-0.3,0.4-0.5,0.6C338.4,311.9,338.5,311.7,338.7,311.5z"/>
</g>
<g>
	<path d="M338.7,311.5c-0.2,0.2-0.3,0.4-0.5,0.6C338.4,311.9,338.5,311.7,338.7,311.5z"/>
</g>
<g>
	<polygon points="339,311.2 339,311.2 339,311.2 	"/>
</g>
<g>
	<polygon points="339,311.2 339,311.2 339,311.2 	"/>
</g>
<g>
	<polygon points="338.6,310.1 338.6,310.1 338.6,310.1 	"/>
</g>
<g>
	<path d="M339,311.2c0.3-0.3,0.6-0.6,0.9-0.9l0,0C339.5,310.6,339.2,310.9,339,311.2z"/>
</g>
<g>
	<path d="M338.6,310.1c-0.2,0.3-0.5,0.5-0.7,0.8h0C338.1,310.7,338.3,310.4,338.6,310.1z"/>
</g>
<g>
	<polygon points="339,311.2 339,311.2 339,311.2 	"/>
</g>
<path class="st0" d="M361.8,285.2c0,0.1-0.1,0.2-0.1,0.3c0.1-0.1,0.2-0.2,0.3-0.3L361.8,285.2z"/>
<path d="M362.6,286c-4.1,9.7-9.7,16.6-16.5,20.5c-0.7,0.4-1.4,0.8-2.1,1.1c-0.4,0.2-0.7,0.4-1.1,0.5c0,0-0.1,0-0.1,0.1
	c-1.1,0.6-2.1,1.2-3,2c-0.3,0.3-0.6,0.6-0.9,0.9c0,0,0,0,0,0c0,0,0,0,0,0c-0.1,0.1-0.2,0.2-0.3,0.3c-0.2,0.2-0.3,0.4-0.5,0.6
	c-3.4,5.2-1.5,12.3,0.6,18.6c3.6,11.1,7.2,17.4,10.3,22.9c2.8,5.1,5.5,9.9,7.7,17.3c3,10.3,3.2,19.2,3.3,26.4
	c0.1,7.2-0.5,12.6-0.9,16.9c-0.7,6.7-1.2,11.5,1.2,18.5c0.3,0.9,0.4,1,1.2,2.4c1.1,1.8,3.3,5.5,8.8,15.2l0.9,1.6
	c5.9,10.5,7.6,13.7,11.5,14.8c2.5,0.7,4.7,0.3,6.7,0c2.3-0.4,4.4-0.8,6.2,0.8c1.5,1.4,1.6,3.4,1.6,5.6c0,1.1,0,2.4,0.2,3.7
	c0.7,4.5,3.5,8.9,8.3,13c0.1-0.1,0.1-0.2,0.2-0.2c7.5-10.9,9.2-13.9,9.1-18.2c0-0.4,0-0.8-0.1-1.2c-0.1-1.5-0.2-2.9,0.7-3.2
	c1-0.4,1.9,0.7,3.5,2.7c1,1.3,2.4,2.9,4,4.4c2.2,2.1,9.8,8.8,15,6.6c1.8-0.8,3.2-2.6,4.1-5.4c1.2-3.8-0.2-7.2-2.3-12.2
	c-0.6-1.5-1.3-3.2-2.1-5.1c-1.4-3.8-2.6-7.8-3.6-11.8c-0.2-1.1-0.2-0.1-0.2-1c-0.2-0.8-0.4-1.6-0.5-2.4l0.6-0.1
	c-1.1-1.6-2.2-3.2-3.4-4.7c-0.3-0.4-0.7-0.9-1.1-1.3c-2.4-2.8-4.8-5.8-4-9c0.5-2,1.9-3.2,3.2-4.2c1.3-1,2.4-1.9,2.4-3.4
	c0-1.3-0.8-1.9-1.9-2.9c-1.1-1-2.6-2.2-3.7-4.3c-1.6-3.1-1.3-6-1-8.2c0.2-2.1,0.4-3.8-0.9-5.1c-1.2-1.3-2.9-1.3-4.6-1.4
	c-1.9-0.1-3.9-0.2-5.1-2c-0.9-1.4-0.9-2.9-0.8-4.1c0-1.2,0-2-0.5-2.4c-0.6-0.4-1.2-0.2-2.3,0.2c-1,0.4-2.2,0.8-3.5,0.5
	c-1.8-0.4-4.3-2.2-6-8.7l0-0.2c-0.8-2.9-2.3-8.4,20.4-38.3c0.4-0.5,0.8-1,1.1-1.5c-0.2-5.4-3-10.1-6.6-11c-4.8-1.1-9.7,5-11.2,7.1
	c-0.7,0.9-1.6,2.1-3.4,6.2c-2.1,4.6-3.1,7.3-3.8,9.6c-0.6,1.7-1.1,3.2-2,5c-2.7,5.4-8.6,12.3-13.3,12.7c-1,0,0,0-1,0
	c-0.2,0-0.4-0.1-0.5-0.1c-2.1-0.6-2.6-2.7-3.2-5.3c-0.7-3-1.5-6.8-5-10.7c-1.3-1.5-2.6-2.5-3.8-3.4c-2.1-1.7-3.9-3.1-4.7-6.1
	c-0.4-1.3-0.3-2,0-6.1l0.1-1.8c0.4-4.7,0.4-6,0.5-6.9c0-1,0.1-1.6,0.4-5.1c0.6-6.8,1-9.4,1.2-10.9c0.2-1.3,0.3-1.8,0.3-3.6
	c0.1-4-0.1-6.7-0.4-9.4c-0.3-3.3-0.6-6.3-0.1-11.5c0.1-1.3,0.2-2.3,0.2-3.1c0.1-1.7,0.2-2.7,0.4-3.2c-0.1-0.1-0.2-0.2-0.3-0.2
	C365.7,283.5,364.7,283.6,362.6,286z"/>
<path d="M379.5,241.8c-0.6-0.9-0.2-2.6,0.6-5.2c0.9-3.1,2.2-7.9,2.7-14.6l0-0.5c0.1-2.4,0.4-6.3,2-11.1c1.4-4.1,2.7-5.6,3.6-6.5
	c1.5-1.4,2.9-1.8,4.1-2.2c1-0.3,1.9-0.6,2.8-1.3c3.2-2.7,2.8-8.1,2.5-11.7c-0.4-5.4-1.8-8.7-3.1-12c-0.6-1.5-1.2-3-1.7-4.6
	c-1.7-5.9-1.3-12.7,1.4-20.1c-3.2,1.5-6.3,3.5-9.2,5.4c-2.4,1.6-4.2,5.7-7.4,7.7c-3.7,2.2-7.3,5-11.4,6.3c-4.4,1.5-9.3,1.8-14,2.4
	c-7.4,0.9-14.8,2.1-21.2,5.8c-5,2.8-7.7,7.9-7.8,13.9c-0.1,5.7-1.3,9.5-4.2,12c4.5,4.8,6.2,8.4,5.1,10.9c-0.6,1.3-1.6,1.8-3.6,2.6
	c-1.1,0.5-2.7,1.2-4.7,2.3c-5.9,3.2-8.9,4.9-9.6,7.5c-0.5,1.8,0.4,3,2,5.6c1.1,1.6,2.4,3.7,3.8,6.6c0.6,1.3,0.8,1.8,4.4,12.1
	c1.5,4.5,2.7,7.9,3.6,10.5c2.6,7.5,2.7,7.8,3.2,8.9c1.9,3.8,3.4,5.9,4.7,7.8c1.6,2.2,2.9,4,3.9,7.5c0.8,2.7,0.5,5,0.1,7.3
	c-0.4,2.5-0.7,4.8,0.3,7.8c0.1,0.2,0.1,0.4,0.2,0.6c0.5,1.5,1.4,4.3,3.6,5.8c0.7,0.5,1.5,0.8,2.4,1c0,0,0,0,0,0
	c0.2-0.2,0.3-0.3,0.5-0.5c0,0,0.1-0.1,0.1-0.1c0.2-0.2,0.3-0.3,0.5-0.4c0,0,0,0,0.1,0c0.5-0.4,1.1-0.8,1.7-1.1
	c0.1,0,0.1-0.1,0.2-0.1c0.2-0.1,0.3-0.2,0.5-0.3c0.1-0.1,0.2-0.1,0.3-0.2c0.1-0.1,0.3-0.1,0.4-0.2c0.2-0.1,0.5-0.2,0.7-0.4
	c0.7-0.3,1.4-0.7,2.1-1.1c6.6-3.7,11.9-10.3,15.9-19.6l-0.1-0.1c0.1-0.2,0.3-0.3,0.4-0.5c0-0.1,0.1-0.2,0.1-0.3l0.1,0
	c1.8-2.1,3.3-2.9,4.5-2.5c0.4,0.1,0.7,0.4,0.9,0.7c0.9,0.3,1.5,2.3,2.9,7.5c1.2,4.4,3.1,11.8,4.9,11.8c0,0,0,0,0,0
	c0.3,0,0.7-0.2,1-0.6c2.1-2.1,4.3-8.8,4.2-15.4c-0.1-4.7-1.3-8.5-2.3-11.5c-1.2-3.8-2.2-6.8-0.5-9.6c-0.3-1.9-0.4-3.9-0.5-5.9
	C376.9,253.6,377.7,247.6,379.5,241.8z"/>
<path d="M456.3,208.4c-0.1-2-0.2-4.8-0.2-8.5c0-2.3,0-4.6,0-6.8c-4.9,0.5-9.1-1.2-10.8-1.8c-2.5-1-3.8-2-4.8-2.7
	c-1-0.8-1.7-1.3-3.3-1.6c-2.5-0.5-6.5-0.4-11.7,3.4c-3.1,2.3-4.1,4.4-5.3,7.1c-1.1,2.5-2.5,5.5-5.9,9.5c-3.3,3.8-7,6.8-10.4,9.6
	c-1.8,1.5-3.2,2.5-4.3,3.3c-2.2,1.6-3.3,2.4-4.6,4.4c-1.5,2.2-1.8,3.8-2.2,5.4c-0.4,1.7-0.8,3.4-2.3,5.7c-2.5,3.7-6.9,7.3-9.4,7.3
	c-0.3,0-0.5,0-0.7-0.1c-1.7,5.6-2.4,11.4-2.3,17.2c0,1.6,0.2,3.2,0.4,4.8c0.7-0.7,1.5-1,2.4-1.3c1.1-0.4,2.4-0.8,4.1-2.3
	c3.5-3.1,4.8-6.9,5.8-10c0.9-2.7,1.6-4.9,3.5-5.1c1.4-0.2,2.3,0.8,3.2,1.7c1,1,2.1,2,3.8,2.1c1.7,0,3-1,4.1-1.8
	c1-0.7,1.9-1.4,2.9-0.9c1.8,1,1.3,5.3,0.2,8.1c-1.3,3.4-3.7,5.5-5.3,6.9c-0.7,0.6-1.6,1.4-1.5,1.7c0.3,0.7,3.8,0.5,7.7-0.3
	c2.5-0.6,4.3-1.3,5.5-1.8c1.5-0.6,2.4-1,3.1-0.4c0.2,0.2,0.4,0.5,0.5,0.9c1.1-1.1,2.3-2.4,3.2-4.2c1-1.8,0.8-3.4,0.7-5.1
	c-0.1-1.7-0.3-3.6,0.9-5.6c0.6-1,1.1-1.4,1.7-1.9c0.7-0.5,1.5-1.1,2.9-2.8c1-1.2,1.6-2.1,2.2-3c0.7-1.1,1.3-2,2.5-3.1
	c0.3-0.3,0.6-0.5,0.9-0.8c-0.4-0.3-0.6-0.6-0.7-1c-0.2-1.3,1.3-2.2,4.3-3.9c1.5-0.9,3.4-1.9,5.7-3.4c7.2-4.6,10.8-7,12.6-10.8
	C456.5,214.5,456.5,213.3,456.3,208.4z"/>
</svg>
